<?xml version="1.0" encoding="UTF-8"?>
<svg width="30px" height="30px" viewBox="0 0 30 30" version="1.1" xmlns="http://www.w3.org/2000/svg" xmlns:xlink="http://www.w3.org/1999/xlink">
    <title>android</title>
    <g id="android" stroke="none" stroke-width="1" fill="none" fill-rule="evenodd">
        <g id="iconfinder_android_317758" transform="translate(5.000000, 2.000000)" fill="#85C808" fill-rule="nonzero">
            <path d="M1.60104302,7.35349624 C0.717267275,7.35349624 0,8.08731946 0,8.99149449 L0,15.5434875 C0,16.4476626 0.717267275,17.1814858 1.60104302,17.1814858 C2.48481877,17.1814858 3.20208605,16.4476626 3.20208605,15.5434875 L3.20208605,8.99149449 C3.20208605,8.08650046 2.48481877,7.35349624 1.60104302,7.35349624 Z" id="Path"></path>
            <path d="M19.2125163,7.35349624 C18.3287405,7.35349624 17.6114733,8.08731946 17.6114733,8.99149449 L17.6114733,15.5434875 C17.6114733,16.4476626 18.3287405,17.1814858 19.2125163,17.1814858 C20.096292,17.1814858 20.8135593,16.4476626 20.8135593,15.5434875 L20.8135593,8.99149449 C20.8135593,8.08650046 20.096292,7.35349624 19.2125163,7.35349624 Z" id="Path"></path>
            <path d="M4.00260756,20.4574823 L5.60365059,20.4574823 L5.60365059,24.5524779 C5.60365059,25.456653 6.32091786,26.1904762 7.20469361,26.1904762 C8.08846936,26.1904762 8.80573664,25.456653 8.80573664,24.5524779 L8.80573664,20.4574823 L12.0078227,20.4574823 L12.0078227,24.5524779 C12.0078227,25.456653 12.72509,26.1904762 13.6088657,26.1904762 C14.4926415,26.1904762 15.2099087,25.456653 15.2099087,24.5524779 L15.2099087,20.4574823 L16.8109518,20.4574823 L16.8109518,8.17249536 L4.00260756,8.17249536 L4.00260756,20.4574823 Z" id="Path"></path>
            <path d="M14.1876428,2.07258986 L15.0097784,0.615590406 C15.1210508,0.419030616 15.0554081,0.169235881 14.8624824,0.0553950026 C14.6719583,-0.0584458763 14.4261982,0.00871205227 14.3157262,0.206090842 L13.5144042,1.62623533 C12.5938044,1.10207589 11.535515,0.801503209 10.4067797,0.801503209 C9.27884485,0.801503209 8.22055541,1.10207589 7.29915515,1.62705433 L6.49703259,0.205271843 C6.3857601,0.0095310514 6.14240156,-0.0576268771 5.94947588,0.0553950026 C5.75895176,0.168416882 5.693309,0.418211616 5.80298044,0.614771407 L6.62591656,2.07258986 C5.0384824,3.26505259 4.00260756,5.18314855 4.00260756,7.35349624 L16.8109518,7.35349624 C16.8109518,5.18314855 15.7750769,3.26505259 14.1876428,2.07258986 Z M8.00521512,4.89649885 C7.56252673,4.89649885 7.20469361,4.53040624 7.20469361,4.07749972 C7.20469361,3.6245932 7.56252673,3.25850059 8.00521512,3.25850059 C8.44790352,3.25850059 8.80573664,3.6245932 8.80573664,4.07749972 C8.80573664,4.53040624 8.44790352,4.89649885 8.00521512,4.89649885 Z M12.8083442,4.89649885 C12.3656558,4.89649885 12.0078227,4.53040624 12.0078227,4.07749972 C12.0078227,3.6245932 12.3656558,3.25850059 12.8083442,3.25850059 C13.2510326,3.25850059 13.6088657,3.6245932 13.6088657,4.07749972 C13.6088657,4.53040624 13.2510326,4.89649885 12.8083442,4.89649885 Z" id="Shape"></path>
        </g>
    </g>
</svg>