<?xml version="1.0" encoding="UTF-8"?>
<svg width="32px" height="32px" viewBox="0 0 32 32" version="1.1" xmlns="http://www.w3.org/2000/svg" xmlns:xlink="http://www.w3.org/1999/xlink">
    <title>apple</title>
    <g id="apple" stroke="none" stroke-width="1" fill="none" fill-rule="evenodd">
        <g id="iconfinder_16-apple_104490" transform="translate(6.000000, 3.000000)" fill="#000000" fill-rule="nonzero">
            <path d="M17.3841779,13.917105 C17.3519673,10.5995287 20.0244016,9.00834835 20.1438922,8.9279642 C18.6419468,6.67774032 16.3020082,6.36898 15.4692104,6.33384521 C13.4794314,6.12676286 11.5847255,7.53481636 10.5752893,7.53481636 C9.56793121,7.53481636 8.00831855,6.3641889 6.35830862,6.39400024 C4.18773511,6.42700565 2.18704612,7.68759949 1.07006836,9.67857117 C-1.1841486,13.6855348 0.493396127,19.6238474 2.68994587,22.8759452 C3.76380308,24.4655285 5.04443107,26.2542089 6.72457342,26.1887305 C8.3439314,26.123252 8.95489225,25.1155222 10.9124607,25.1155222 C12.8700292,25.1155222 13.4196861,26.1887305 15.1325585,26.1551927 C16.8740048,26.1227196 17.9779944,24.5352658 19.0430197,22.9392943 C20.2758514,21.0925882 20.7834269,19.3044401 20.8135593,19.2139414 C20.775634,19.1958417 17.418986,17.8782869 17.3841779,13.917105 Z" id="Path"></path>
            <path d="M14.1657234,4.18157288 C15.0567079,3.07322982 15.6603954,1.53315467 15.4962257,0 C14.2104025,0.053234537 12.653907,0.875708133 11.7307119,1.9829865 C10.9036288,2.96569606 10.1804506,4.5302591 10.3742333,6.0357318 C11.8086405,6.14965371 13.2716216,5.28778656 14.1657234,4.18157288 Z" id="Path"></path>
        </g>
    </g>
</svg>