<?xml version="1.0" encoding="UTF-8"?>
<svg width="211px" height="109px" viewBox="0 0 211 109" version="1.1" xmlns="http://www.w3.org/2000/svg" xmlns:xlink="http://www.w3.org/1999/xlink">
    <title>Group 3</title>
    <defs>
        <linearGradient x1="-9.50558963%" y1="5.03560327%" x2="53.5546444%" y2="72.4402139%" id="linearGradient-1">
            <stop stop-color="#FAD25A" offset="0%"></stop>
            <stop stop-color="#EE2F50" offset="100%"></stop>
        </linearGradient>
        <linearGradient x1="88.2795895%" y1="47.1714775%" x2="-6.44562077%" y2="52.3032903%" id="linearGradient-2">
            <stop stop-color="#BB13CC" offset="0%"></stop>
            <stop stop-color="#FE8A25" offset="100%"></stop>
        </linearGradient>
    </defs>
    <g id="Page-1" stroke="none" stroke-width="1" fill="none" fill-rule="evenodd">
        <g id="Home" transform="translate(-165.000000, -2791.000000)">
            <g id="Group-3" transform="translate(165.558248, 2792.620060)">
                <path d="M34.4922353,70.8363313 C39.1382482,70.8363313 43.8724766,70.160013 48.6949204,68.8073763 C53.5173642,67.4547396 57.7517052,65.5140001 61.3979432,62.9851576 L61.3979432,62.9851576 L61.3979432,36.8733886 L43.3137789,36.8733886 L43.3137789,52.4875207 C40.902557,53.4872957 38.3737145,53.9871831 35.7272514,53.9871831 C31.2576693,53.9871831 27.6849442,52.5757362 25.009076,49.7528422 C22.3332078,46.9299483 20.9952737,43.1954949 20.9952737,38.5494819 C20.9952737,33.7858484 22.3479103,30.0219898 25.0531837,27.2579062 C27.7584571,24.4938225 31.4046951,23.1117807 35.9918977,23.1117807 C41.3436341,23.1117807 45.9602419,25.3759769 49.8417211,29.9043692 L49.8417211,29.9043692 L63.1622519,18.1717163 C59.9864962,14.2902371 56.002099,11.33502 51.2090604,9.30606502 C46.4160217,7.27711 40.9907724,6.26263249 34.9333125,6.26263249 C28.2289394,6.26263249 22.2155872,7.62997175 16.8932559,10.3646502 C11.5709246,13.0993288 7.42479916,16.9219976 4.4548795,21.8326569 C1.48495983,26.7433161 0,32.3155911 0,38.5494819 C0,44.7833727 1.48495983,50.3556477 4.4548795,55.266307 C7.42479916,60.1769662 11.5268169,63.9996351 16.7609328,66.7343136 C21.9950486,69.4689921 27.9054828,70.8363313 34.4922353,70.8363313 Z" id="G" fill-opacity="0.85" fill="#000000" fill-rule="nonzero"></path>
                <path d="M175.234511,69.3075095 C182.115315,69.3075095 188.187478,68.0577908 193.450999,65.5583535 C198.71452,63.0589162 202.801835,59.486191 205.712944,54.8401781 C208.624053,50.1941651 210.079608,44.7248081 210.079608,38.4321071 C210.079608,32.139406 208.624053,26.670049 205.712944,22.024036 C202.801835,17.3780231 198.71452,13.805298 193.450999,11.3058606 C188.187478,8.80642328 182.115315,7.55670461 175.234511,7.55670461 L175.234511,7.55670461 L144.800186,7.55670461 L144.800186,69.3075095 L175.234511,69.3075095 Z M174.352357,53.0758694 L165.619029,53.0758694 L165.619029,23.7883448 L174.352357,23.7883448 C178.821939,23.7883448 182.394664,25.0674686 185.070532,27.6257162 C187.7464,30.1839638 189.084334,33.7860941 189.084334,38.4321071 C189.084334,43.07812 187.7464,46.6802503 185.070532,49.2384979 C182.394664,51.7967455 178.821939,53.0758694 174.352357,53.0758694 L174.352357,53.0758694 Z" id="D" fill-opacity="0.85" fill="#000000" fill-rule="nonzero"></path>
                <path d="M106.335616,7.22281639 C124.801969,7.22281639 139.771906,22.1531405 139.771906,40.5706288 C139.771906,58.988117 124.801969,73.9184411 106.335616,73.9184411 C87.8692628,73.9184411 72.8993259,58.988117 72.8993259,40.5706288 C72.8993259,22.1531405 87.8692628,7.22281639 106.335616,7.22281639 Z M89.3578336,26.5192275 C88.1703465,26.9514375 87.5571462,28.2619141 87.9882125,29.4462589 L97.8278742,56.4805072 C98.3730308,57.9783128 99.6778871,59.0707889 101.25104,59.3463472 C102.824192,59.6219055 104.42658,59.0386999 105.454581,57.8164249 L122.600784,37.430393 C123.628071,36.2074093 123.924418,34.5314725 123.378182,33.0339697 C122.831945,31.5364677 121.526123,30.4449394 119.952667,30.1706045 C119.403167,30.0737887 118.843243,30.2777432 118.484749,30.7053 C118.126254,31.1328568 118.02394,31.7187164 118.216518,32.2412137 L118.846294,33.9715072 C119.278972,35.1132209 118.756015,36.396275 117.646852,36.9142882 C117.067527,37.1697333 116.408445,37.1743772 115.826421,36.9271151 C115.244397,36.679853 114.791465,36.2027909 114.575389,35.6094343 L112.549195,30.0425134 C112.290831,29.2484643 111.618746,28.659059 110.796335,28.5052903 C109.973925,28.3515216 109.132199,28.6578848 108.601037,29.3043135 C108.069875,29.9507423 107.93389,30.8342609 108.246376,31.6086113 L112.523485,43.3598706 C112.953058,44.5010846 112.430298,45.7815613 111.323119,46.3001108 C110.744312,46.5562016 110.085415,46.561456 109.50344,46.3146219 C108.921465,46.0677878 108.468534,45.5909717 108.25258,44.9977977 L104.862336,35.6831779 C104.656118,35.112389 104.230678,34.647319 103.679876,34.3905717 C103.190275,34.1623519 102.637385,34.1154031 102.118965,34.2539595 L101.926364,34.314622 C100.742975,34.7500907 100.133097,36.0575052 100.561838,37.2397989 L101.308135,39.2902349 C101.740529,40.431482 101.216991,41.7138629 100.107769,42.2304751 C99.5284434,42.4859201 98.8693622,42.4905641 98.287338,42.243302 C97.7053137,41.9960398 97.2523814,41.5189777 97.0363054,40.9256211 L92.2884837,27.8810882 C91.8574174,26.6967433 90.5453207,26.0870175 89.3578336,26.5192275 Z M101.489217,43.0625476 C102.310663,43.2161419 102.981955,43.8048676 103.240001,44.5979928 L104.670636,48.5286303 C104.982773,49.3020682 104.846959,50.1845563 104.316422,50.8302322 C103.785886,51.4759082 102.945144,51.7819133 102.123697,51.628319 C101.30225,51.4747246 100.630958,50.885999 100.372913,50.0928737 L98.9422775,46.1622363 C98.6301411,45.3887984 98.7659549,44.5063103 99.2964912,43.8606344 C99.8270274,43.2149584 100.66777,42.9089533 101.489217,43.0625476 Z M100.980334,26.9186437 C100.428303,26.6638878 99.797285,26.6388361 99.2266915,26.8490073 L99.2266915,26.8490073 L99.0752264,26.9100803 C97.9889211,27.39322 97.4464928,28.6390528 97.8582199,29.7714433 L97.8582199,29.7714433 L98.3589262,31.1434822 C98.5663952,31.7119914 98.9919664,32.1749167 99.5418845,32.4302735 C100.091803,32.6856302 100.720949,32.7124675 101.290738,32.5049222 L101.290738,32.5049222 L101.459375,32.4371652 C101.955188,32.2147088 102.35733,31.8221178 102.590238,31.3277879 C102.849025,30.7785326 102.877512,30.1490269 102.669388,29.5787537 L102.669388,29.5787537 L102.168681,28.2067151 C101.959973,27.6368913 101.532365,27.1733997 100.980334,26.9186437 Z" id="Combined-Shape" fill="url(#linearGradient-1)" fill-rule="nonzero"></path>
                <g id="Group-2" transform="translate(108.368904, 38.542721) rotate(-20.000000) translate(-108.368904, -38.542721) translate(92.328521, 20.742200)"></g>
                <path d="M70.0526922,55.5119742 C69.0019758,51.4229141 68.2004327,48.086141 67.648063,45.5016549 C65.1631143,33.8748141 70.9473753,17.3303326 82.3835334,9.51517867 C94.1351113,1.4844756 111.067866,-1.93924481 123.583072,6.101369 C125.58618,7.38830127 128.863982,9.5438881 133.416477,12.5681295" id="Path-2" stroke-opacity="0.85" stroke="#000000" stroke-width="4.50078753"></path>
                <g id="Group" transform="translate(68.973455, 55.771281) rotate(-26.000000) translate(-68.973455, -55.771281) translate(63.800544, 46.904654)" fill="#000000" fill-opacity="0.85">
                    <path d="M8.96796761,17.7332547 C4.00629327,17.7332547 1.3623029,13.908291 1.3623029,8.95974602 C1.3623029,4.0116517 5.38414638,0 10.3458207,0 C9.74926571,2.63650286 9.25674884,5.3897737 8.8682701,8.25981255 C8.47979135,11.1298514 8.51302386,14.2876654 8.96796761,17.7332547 Z" id="Fill-36"></path>
                    <path d="M2.8890762,14.3900317 L2.71105055,14.3900317 C1.21997275,14.3900317 3.41693278e-13,13.1732872 3.41693278e-13,11.686155 L3.41693278e-13,6.38880994 C3.41693278e-13,4.90167777 1.21997275,3.68493327 2.71105055,3.68493327 L2.8890762,3.68493327 C4.380154,3.68493327 5.60012674,4.90167777 5.60012674,6.38880994 L5.60012674,11.686155 C5.60012674,13.1732872 4.380154,14.3900317 2.8890762,14.3900317" id="Fill-37"></path>
                </g>
                <g id="Group" transform="translate(132.155341, 9.961048) scale(-1, -1) rotate(-53.000000) translate(-132.155341, -9.961048) translate(126.473796, 0.949036)" fill="#000000" fill-opacity="0.85">
                    <path d="M9.6872102,18.0240245 C4.72553586,18.0240245 1.3623029,14.0708816 1.3623029,9.12233666 C1.3623029,4.17424234 6.40141627,0 11.3630906,0 C10.279391,3.95703975 9.72068084,7.19443547 9.68696012,9.71218717 C9.6532394,12.2299389 9.65332275,15.0005513 9.6872102,18.0240245 Z" id="Fill-36"></path>
                    <path d="M2.8890762,14.5526223 L2.71105055,14.5526223 C1.21997275,14.5526223 4.55591038e-13,13.3358778 4.55591038e-13,11.8487456 L4.55591038e-13,6.55140059 C4.55591038e-13,5.06426842 1.21997275,3.84752391 2.71105055,3.84752391 L2.8890762,3.84752391 C4.380154,3.84752391 5.60012674,5.06426842 5.60012674,6.55140059 L5.60012674,11.8487456 C5.60012674,13.3358778 4.380154,14.5526223 2.8890762,14.5526223" id="Fill-37"></path>
                </g>
                <polyline id="Path-3" stroke="url(#linearGradient-2)" stroke-width="3.60063002" stroke-linecap="round" stroke-linejoin="round" transform="translate(142.236747, 83.108965) scale(-1, 1) translate(-142.236747, -83.108965) " points="76.9456134 85.8849634 104.007415 85.8849634 112.471963 76.6121407 121.101319 98.638163 130.309073 76.6121407 138.935548 90.0332607 148.556423 67.5797672 156.559005 80.4528098 207.527881 80.4528098"></polyline>
                <path d="M11.7952932,106.399571 L11.7952932,93.1127958 L18.355191,104.276549 L19.1900871,104.276549 L25.7499849,93.0412333 L25.7499849,106.399571 L27.4436313,106.399571 L27.4436313,89.701649 L25.9885267,89.701649 L18.8084203,102.081965 L11.5567515,89.701649 L10.1016469,89.701649 L10.1016469,106.399571 L11.7952932,106.399571 Z M49.9099256,106.542696 C52.0727041,106.542696 53.7544233,105.922487 54.9550834,104.68207 C56.1557435,103.441653 56.7560736,101.636687 56.7560736,99.2671727 L56.7560736,99.2671727 L56.7560736,89.701649 L55.038573,89.701649 L55.038573,99.1956102 C55.038573,101.13575 54.6012465,102.582903 53.7265935,103.53707 C52.8519404,104.491237 51.5797178,104.96832 49.9099256,104.96832 C48.2560363,104.96832 46.991765,104.491237 46.117112,103.53707 C45.242459,102.582903 44.8051324,101.13575 44.8051324,99.1956102 L44.8051324,99.1956102 L44.8051324,89.701649 L43.0399236,89.701649 L43.0399236,99.2671727 C43.0399236,101.636687 43.6442293,103.441653 44.8528408,104.68207 C46.0614523,105.922487 47.7471472,106.542696 49.9099256,106.542696 Z M76.9800756,106.542696 C78.3477149,106.542696 79.5006666,106.339935 80.4389308,105.934414 C81.377195,105.528893 82.0729417,104.980247 82.526171,104.288476 C82.9794003,103.596705 83.206015,102.829396 83.206015,101.986549 C83.206015,100.96877 82.943619,100.161704 82.4188272,99.5653499 C81.8940354,98.9689955 81.2539484,98.5237176 80.4985662,98.2295162 C79.743184,97.9353147 78.7532358,97.6371375 77.5287216,97.3349846 C76.4950407,97.0805401 75.6720717,96.8459741 75.0598146,96.6312865 C74.4475574,96.4165989 73.9386684,96.1064947 73.5331474,95.7009737 C73.1276265,95.2954528 72.924866,94.7587338 72.924866,94.090817 C72.924866,93.2002612 73.2946057,92.4727088 74.0340851,91.9081601 C74.7735645,91.3436113 75.8748322,91.0613369 77.3378882,91.0613369 C78.1012217,91.0613369 78.8804581,91.1766321 79.6755972,91.4072224 C80.4707363,91.6378128 81.2181671,91.9836983 81.9178896,92.444879 L81.9178896,92.444879 L82.5142439,91.0374827 C81.846327,90.576302 81.0551636,90.2145137 80.1407536,89.9521178 C79.2263436,89.6897219 78.2920551,89.5585239 77.3378882,89.5585239 C75.9702489,89.5585239 74.8252485,89.7652601 73.9028871,90.1787325 C72.9805257,90.5922048 72.2967061,91.1448265 71.8514282,91.8365975 C71.4061503,92.5283686 71.1835113,93.2956778 71.1835113,94.1385253 C71.1835113,95.1722062 71.4498829,95.9911995 71.9826261,96.5955052 C72.5153693,97.199811 73.1554563,97.6490646 73.9028871,97.9432661 C74.6503179,98.2374675 75.6521932,98.5435961 76.908513,98.8616518 C77.9580967,99.1160963 78.77709,99.3506623 79.365493,99.5653499 C79.9538959,99.7800375 80.4508579,100.086166 80.8563788,100.483736 C81.2618998,100.881305 81.4646603,101.414048 81.4646603,102.081965 C81.4646603,102.956618 81.0909449,103.668268 80.3435141,104.216914 C79.5960833,104.76556 78.4749371,105.039883 76.9800756,105.039883 C75.9145891,105.039883 74.8809083,104.853025 73.879033,104.47931 C72.8771577,104.105594 72.0740671,103.616584 71.4697614,103.012278 L71.4697614,103.012278 L70.7779903,104.371966 C71.3981989,105.02398 72.2768276,105.548772 73.4138766,105.946341 C74.5509255,106.343911 75.7396585,106.542696 76.9800756,106.542696 Z M99.1124115,106.399571 L99.1124115,89.701649 L97.3472026,89.701649 L97.3472026,106.399571 L99.1124115,106.399571 Z M122.103498,106.542696 C123.343915,106.542696 124.492891,106.331984 125.550426,105.91056 C126.607961,105.489136 127.502492,104.880855 128.23402,104.085716 L128.23402,104.085716 L127.112874,102.96457 C125.824749,104.300403 124.178811,104.96832 122.17506,104.96832 C120.855129,104.96832 119.654469,104.666167 118.57308,104.061862 C117.491691,103.457556 116.644868,102.630611 116.03261,101.581028 C115.420353,100.531444 115.114225,99.354638 115.114225,98.0506098 C115.114225,96.7465817 115.420353,95.5697758 116.03261,94.5201921 C116.644868,93.4706085 117.491691,92.6436638 118.57308,92.039358 C119.654469,91.4350523 120.855129,91.1328994 122.17506,91.1328994 C124.162908,91.1328994 125.808846,91.7928649 127.112874,93.1127958 L127.112874,93.1127958 L128.23402,91.9916497 C127.502492,91.1965105 126.611937,90.5922048 125.562353,90.1787325 C124.512769,89.7652601 123.367769,89.5585239 122.127352,89.5585239 C120.473462,89.5585239 118.978601,89.9242879 117.642767,90.6558159 C116.306933,91.3873439 115.261325,92.4011463 114.505943,93.6972231 C113.750561,94.9932999 113.37287,96.4444288 113.37287,98.0506098 C113.37287,99.6567909 113.750561,101.10792 114.505943,102.403997 C115.261325,103.700073 116.302958,104.713876 117.63084,105.445404 C118.958722,106.176932 120.449608,106.542696 122.103498,106.542696 Z" id="MUSIC" fill-opacity="0.85" fill="#000000" fill-rule="nonzero"></path>
            </g>
        </g>
    </g>
</svg>