<?xml version="1.0" encoding="UTF-8"?>
<svg width="64px" height="55px" viewBox="0 0 64 55" version="1.1" xmlns="http://www.w3.org/2000/svg" xmlns:xlink="http://www.w3.org/1999/xlink">
    <title>1</title>
    <g id="1" stroke="none" stroke-width="1" fill="none" fill-rule="evenodd">
        <g id="Group-24" transform="translate(0.000000, 6.000000)">
            <g id="iconfinder_10_531207" fill="#000000" fill-opacity="0.85" fill-rule="nonzero" stroke="#F0FBFD" stroke-width="0.2">
                <path d="M54.5106383,36.2352941 L6.4893617,36.2352941 C5.7106383,36.2352941 5.19148936,35.7176471 5.19148936,34.9411765 L5.19148936,1.29411765 C5.19148936,0.517647059 5.7106383,0 6.4893617,0 L54.5106383,0 C55.2893617,0 55.8085106,0.517647059 55.8085106,1.29411765 L55.8085106,34.9411765 C55.8085106,35.7176471 55.2893617,36.2352941 54.5106383,36.2352941 Z M7.78723404,33.6470588 L53.212766,33.6470588 L53.212766,2.58823529 L7.78723404,2.58823529 L7.78723404,33.6470588 Z" id="Shape"></path>
                <path d="M51.9148936,44 L9.08510638,44 C4.02340426,44 0,39.9882353 0,34.9411765 C0,34.1647059 0.519148936,33.6470588 1.29787234,33.6470588 L59.7021277,33.6470588 C60.4808511,33.6470588 61,34.1647059 61,34.9411765 C61,39.9882353 56.9765957,44 51.9148936,44 Z M2.72553191,36.2352941 C3.37446809,39.2117647 5.97021277,41.4117647 9.08510638,41.4117647 L51.9148936,41.4117647 C55.0297872,41.4117647 57.6255319,39.2117647 58.2744681,36.2352941 L2.72553191,36.2352941 Z" id="Shape"></path>
            </g>
            <g id="iconfinder_code_2909987" transform="translate(18.074074, 9.025641)" stroke="#000000" stroke-opacity="0.85" stroke-width="2.3">
                <polyline id="XMLID_313_" points="6.45390429 14.8131004 0 9.02564103 6.45390429 3.23818168"></polyline>
                <polyline id="XMLID_314_" points="18.3979476 3.23818168 24.8518519 9.02564103 18.3979476 14.8131004"></polyline>
                <line x1="9.44822343" y1="18.0512821" x2="15.4036284" y2="0" id="XMLID_315_"></line>
            </g>
        </g>
    </g>
</svg>