<?xml version="1.0" encoding="UTF-8"?>
<svg width="64px" height="55px" viewBox="0 0 64 55" version="1.1" xmlns="http://www.w3.org/2000/svg" xmlns:xlink="http://www.w3.org/1999/xlink">
    <title>2</title>
    <g id="2" stroke="none" stroke-width="1" fill="none" fill-rule="evenodd" fill-opacity="0.85" stroke-opacity="0.85">
        <g id="iconfinder_bulb_1149148" transform="translate(0.000000, 1.000000)" fill="#000000" fill-rule="nonzero" stroke="#000000" stroke-width="0.3">
            <path d="M42.0552247,15.6840993 C42.332431,15.6840993 42.6096372,15.5764784 42.8218733,15.3634329 L47.8678939,10.2459492 C48.2902003,9.81766193 48.2902003,9.12142058 47.8678939,8.69313331 C47.4455874,8.26484605 46.7590688,8.26484605 46.3367623,8.69313331 L41.2907417,13.810617 C40.8684353,14.2389043 40.8684353,14.9351457 41.2907417,15.3634329 C41.5008121,15.5764784 41.7780184,15.6840993 42.0552247,15.6840993 Z" id="Path"></path>
            <path d="M28,9.99556587 C28.597726,9.99556587 29.082837,9.5035846 29.082837,8.89739339 L29.082837,1.09817248 C29.082837,0.491981269 28.597726,0 28,0 C27.402274,0 26.917163,0.491981269 26.917163,1.09817248 L26.917163,8.89739339 C26.917163,9.5035846 27.402274,9.99556587 28,9.99556587 Z" id="Path"></path>
            <path d="M43.5192204,28.6117857 C43.5192204,19.9318304 36.5565782,12.8705814 28,12.8705814 C19.4412561,12.8705814 12.478614,19.9318304 12.478614,28.6117857 C12.478614,34.9350628 16.1840823,40.3863909 21.5029778,42.8858315 L21.5029778,45.3127927 C21.5029778,47.1291699 22.9604764,48.6073101 24.7514889,48.6073101 L31.2485111,48.6073101 C33.0395236,48.6073101 34.4970222,47.1291699 34.4970222,45.3127927 L34.4970222,42.8880278 C39.813752,40.3863909 43.5192204,34.9350628 43.5192204,28.6117857 Z M32.3313481,45.3127927 C32.3313481,45.9167875 31.8440715,46.4109651 31.2485111,46.4109651 L24.7514889,46.4109651 C24.1537629,46.4109651 23.6686519,45.9167875 23.6686519,45.3127927 L23.6686519,43.7160499 C25.0460206,44.1223737 26.4970222,44.3507936 28,44.3507936 C29.5029778,44.3507936 30.9539794,44.1223737 32.3313481,43.7138535 L32.3313481,45.3127927 Z M28,42.156645 C20.6367082,42.156645 14.644288,36.0815548 14.644288,28.613982 C14.644288,21.1464092 20.6367082,15.0691227 28,15.0691227 C35.3632918,15.0691227 41.3535463,21.1442128 41.3535463,28.613982 C41.3535463,36.0837512 35.3632918,42.156645 28,42.156645 Z" id="Shape"></path>
            <path d="M30.1656741,50.803655 L25.8343259,50.803655 C25.2365999,50.803655 24.7514889,51.2956363 24.7514889,51.9018275 C24.7514889,52.5080187 25.2365999,53 25.8343259,53 L30.1656741,53 C30.7634001,53 31.2485111,52.5080187 31.2485111,51.9018275 C31.2485111,51.2956363 30.7634001,50.803655 30.1656741,50.803655 Z" id="Path"></path>
            <path d="M54.917163,27.7420331 L47.4715755,27.7420331 C46.8738495,27.7420331 46.3887385,28.2340143 46.3887385,28.8402055 C46.3887385,29.4463968 46.8738495,29.938378 47.4715755,29.938378 L54.917163,29.938378 C55.514889,29.938378 56,29.4463968 56,28.8402055 C56,28.2340143 55.514889,27.7420331 54.917163,27.7420331 Z" id="Path"></path>
            <path d="M43.8895506,43.4019726 C43.4672442,42.9736853 42.7807255,42.9736853 42.3584191,43.4019726 C41.9361126,43.8302598 41.9361126,44.5265012 42.3584191,44.9547884 L46.2934488,48.9455472 C46.5056849,49.160789 46.7828912,49.2662136 47.0600975,49.2662136 C47.3373037,49.2662136 47.61451,49.1585927 47.8267461,48.9455472 C48.2490525,48.51726 48.2490525,47.8210186 47.8267461,47.3927313 L43.8895506,43.4019726 Z" id="Path"></path>
            <path d="M13.1781267,15.3612366 C13.3903628,15.5764784 13.667569,15.6840993 13.9447753,15.6840993 C14.2219816,15.6840993 14.4991879,15.5764784 14.7114239,15.3634329 C15.1337304,14.9351457 15.1337304,14.2389043 14.7114239,13.810617 L9.66540336,8.69313331 C9.24309691,8.26484605 8.55657823,8.26484605 8.13427179,8.69313331 C7.71196535,9.12142058 7.71196535,9.81766193 8.13427179,10.2459492 L13.1781267,15.3612366 Z" id="Path"></path>
            <path d="M9.61126151,28.8402055 C9.61126151,28.2340143 9.12615051,27.7420331 8.52842447,27.7420331 L1.08283703,27.7420331 C0.485110991,27.7420331 0,28.2340143 0,28.8402055 C0,29.4463968 0.485110991,29.938378 1.08283703,29.938378 L8.52842447,29.938378 C9.12615051,29.938378 9.61126151,29.4463968 9.61126151,28.8402055 Z" id="Path"></path>
            <path d="M12.1104494,43.4019726 L8.1754196,47.3927313 C7.75311316,47.8210186 7.75311316,48.51726 8.1754196,48.9455472 C8.38765566,49.160789 8.66486194,49.2662136 8.94206822,49.2662136 C9.2192745,49.2662136 9.49648078,49.1585927 9.70871684,48.9455472 L13.6437466,44.9547884 C14.0660531,44.5265012 14.0660531,43.8302598 13.6437466,43.4019726 C13.2214402,42.9736853 12.5327558,42.9736853 12.1104494,43.4019726 Z" id="Path"></path>
        </g>
    </g>
</svg>