<?xml version="1.0" encoding="UTF-8"?>
<svg width="64px" height="55px" viewBox="0 0 64 55" version="1.1" xmlns="http://www.w3.org/2000/svg" xmlns:xlink="http://www.w3.org/1999/xlink">
    <title>3</title>
    <g id="3" stroke="none" stroke-width="1" fill="none" fill-rule="evenodd" fill-opacity="0.85">
        <g id="iconfinder_microscope_research_science_3031646" fill="#000000" fill-rule="nonzero">
            <path d="M37.9999269,30.990045 C38.0008147,22.0101299 30.7740456,14.693426 21.7739159,14.5621811 L25.117903,8.79979189 C25.2863197,8.50915355 25.3318941,8.16360308 25.2445692,7.83939369 C25.1572248,7.51346339 24.9428683,7.23591053 24.6492382,7.06854777 L21.3685842,5.17302501 L23.2685768,1.90008904 C23.6183558,1.29290542 23.4085274,0.517801024 22.799912,0.168844919 C22.1912965,-0.180111186 21.4143643,0.0292235781 21.0645853,0.6364072 L19.1645927,3.90934317 L15.8839387,2.01382041 C15.5919431,1.845062 15.2445198,1.79952055 14.9187378,1.88729849 C14.5929557,1.97507644 14.3157496,2.18891653 14.148612,2.48138269 L2.74865605,22.1821826 C2.58023935,22.4728209 2.53466496,22.8183714 2.62198988,23.1425808 C2.70933428,23.4685111 2.92369078,23.746064 3.21732091,23.9134267 L11.9826204,28.9681541 C12.1756633,29.0773115 12.3940621,29.1339616 12.6159513,29.1324327 C13.0702836,29.1342322 13.4907827,28.8931346 13.717947,28.5005918 L20.3172549,17.1274552 L21.5839167,17.1274552 C28.0597094,17.1126209 33.6921096,21.5509101 35.1776332,27.8392023 C36.6631568,34.1274945 33.6101614,40.6079477 27.8092726,43.4796828 C22.0083839,46.3514179 14.988945,44.8573321 10.867958,39.8737284 L16.4666031,39.8737284 C17.1661611,39.8737284 17.7332649,39.3079587 17.7332649,38.6100465 C17.7332649,37.9121343 17.1661611,37.3463647 16.4666031,37.3463647 L1.26666178,37.3463647 C0.567103794,37.3463647 0,37.9121343 0,38.6100465 C0,39.3079587 0.567103794,39.8737284 1.26666178,39.8737284 L7.68863698,39.8737284 C10.4808595,44.1875642 15.1343746,46.9506632 20.2665884,47.342088 L20.2665884,52.4726363 L11.399956,52.4726363 C10.700398,52.4726363 10.1332942,53.0384059 10.1332942,53.7363182 C10.1332942,54.4342304 10.700398,55 11.399956,55 L31.6665444,55 C32.3661024,55 32.9332062,54.4342304 32.9332062,53.7363182 C32.9332062,53.0384059 32.3661024,52.4726363 31.6665444,52.4726363 L22.799912,52.4726363 L22.799912,47.417909 C31.3961196,46.7562954 38.0253964,39.5914745 37.9999269,30.990045 Z M12.1599531,26.1375068 L5.57331182,22.3464612 L15.706606,4.84446773 L22.2932473,8.63551325 L12.1599531,26.1375068 Z" id="Shape"></path>
        </g>
    </g>
</svg>