<?xml version="1.0" encoding="UTF-8"?>
<svg width="30px" height="30px" viewBox="0 0 30 30" version="1.1" xmlns="http://www.w3.org/2000/svg" xmlns:xlink="http://www.w3.org/1999/xlink">
    <title>linkedin</title>
    <g id="linkedin" stroke="none" stroke-width="1" fill="none" fill-rule="evenodd">
        <rect id="Rectangle" fill="#D8D8D8" opacity="0" x="0" y="0" width="30" height="30"></rect>
        <g id="iconfinder_social-linkedin_216394" transform="translate(3.000000, 3.000000)" fill="#000000" fill-rule="nonzero">
            <path d="M5.20996441,24 L0.0854092527,24 L0.0854092527,6.85714286 L5.20996441,6.85714286 L5.20996441,24 Z M24,24 L18.8754448,24 L18.8754448,14.8422857 C18.8754448,12.456 18.0281851,11.268 16.3490391,11.268 C15.018363,11.268 14.1745196,11.9331429 13.7508897,13.2651429 C13.7508897,15.4285714 13.7508897,24 13.7508897,24 L8.62633452,24 C8.62633452,24 8.69466192,8.57142857 8.62633452,6.85714286 L12.6713167,6.85714286 L12.9839146,10.2857143 L13.0898221,10.2857143 C14.1403559,8.57142857 15.8195018,7.40914286 18.1221352,7.40914286 C19.8730249,7.40914286 21.2891103,7.89771429 22.3703915,9.12514286 C23.4585053,10.3542857 24,12.0034286 24,14.3194286 L24,24 Z" id="Shape"></path>
            <ellipse id="Oval" cx="2.64768683" cy="2.57142857" rx="2.64768683" ry="2.57142857"></ellipse>
        </g>
    </g>
</svg>