<?xml version="1.0" encoding="UTF-8"?>
<svg width="568px" height="184px" viewBox="0 0 568 184" version="1.1" xmlns="http://www.w3.org/2000/svg" xmlns:xlink="http://www.w3.org/1999/xlink">
    <title>2</title>
    <defs>
        <polygon id="path-1" points="0 0 133 0 133 42 0 42"></polygon>
    </defs>
    <g id="2" stroke="none" stroke-width="1" fill="none" fill-rule="evenodd">
        <g id="Group" transform="translate(0.000000, 13.000000)">
            <g id="wipro" transform="translate(219.000000, 80.000000)" fill="#000000" fill-opacity="0.85" fill-rule="nonzero">
                <ellipse id="Oval" cx="68" cy="3.5" rx="3" ry="2.5"></ellipse>
                <circle id="Oval" cx="66" cy="13" r="2"></circle>
                <circle id="Oval" cx="63.5" cy="21.5" r="1.5"></circle>
                <circle id="Oval" cx="62" cy="27" r="1"></circle>
                <ellipse id="Oval" cx="77" cy="7.5" rx="3" ry="2.5"></ellipse>
                <circle id="Oval" cx="72" cy="16" r="2"></circle>
                <circle id="Oval" cx="67.5" cy="23.5" r="1.5"></circle>
                <circle id="Oval" cx="65" cy="28" r="1"></circle>
                <circle id="Oval" cx="84.5" cy="12.5" r="3.5"></circle>
                <circle id="Oval" cx="77" cy="20" r="2"></circle>
                <circle id="Oval" cx="71.5" cy="25.5" r="1.5"></circle>
                <circle id="Oval" cx="67" cy="30" r="1"></circle>
                <ellipse id="Oval" cx="91" cy="20.5" rx="4" ry="3.5"></ellipse>
                <circle id="Oval" cx="81.5" cy="25.5" r="2.5"></circle>
                <circle id="Oval" cx="75" cy="30" r="2"></circle>
                <circle id="Oval" cx="69" cy="33" r="1"></circle>
                <circle id="Oval" cx="94" cy="29" r="4"></circle>
                <circle id="Oval" cx="84.5" cy="32.5" r="2.5"></circle>
                <circle id="Oval" cx="77" cy="34" r="2"></circle>
                <circle id="Oval" cx="70" cy="36" r="1"></circle>
                <circle id="Oval" cx="96" cy="39" r="4"></circle>
                <circle id="Oval" cx="85" cy="39" r="3"></circle>
                <circle id="Oval" cx="77" cy="39" r="2"></circle>
                <circle id="Oval" cx="70.5" cy="39.5" r="1.5"></circle>
                <circle id="Oval" cx="90.5" cy="57.5" r="3.5"></circle>
                <circle id="Oval" cx="81.5" cy="52.5" r="2.5"></circle>
                <circle id="Oval" cx="75" cy="48" r="2"></circle>
                <circle id="Oval" cx="69" cy="45" r="1"></circle>
                <circle id="Oval" cx="84.5" cy="65.5" r="3.5"></circle>
                <circle id="Oval" cx="77.5" cy="57.5" r="2.5"></circle>
                <circle id="Oval" cx="71.5" cy="52.5" r="1.5"></circle>
                <circle id="Oval" cx="67" cy="48" r="1"></circle>
                <circle id="Oval" cx="77" cy="71" r="3"></circle>
                <circle id="Oval" cx="71.5" cy="62.5" r="2.5"></circle>
                <circle id="Oval" cx="67.5" cy="54.5" r="1.5"></circle>
                <circle id="Oval" cx="65" cy="50" r="1"></circle>
                <ellipse id="Oval" cx="68" cy="74.5" rx="3" ry="2.5"></ellipse>
                <circle id="Oval" cx="66" cy="65" r="2"></circle>
                <circle id="Oval" cx="63.5" cy="56.5" r="1.5"></circle>
                <circle id="Oval" cx="62" cy="51" r="1"></circle>
                <ellipse id="Oval" cx="59" cy="75.5" rx="3" ry="2.5"></ellipse>
                <circle id="Oval" cx="59" cy="66" r="2"></circle>
                <circle id="Oval" cx="58.5" cy="57.5" r="1.5"></circle>
                <circle id="Oval" cx="59" cy="51" r="1"></circle>
                <ellipse id="Oval" cx="49" cy="74.5" rx="3" ry="2.5"></ellipse>
                <circle id="Oval" cx="52" cy="65" r="2"></circle>
                <circle id="Oval" cx="53.5" cy="56.5" r="1.5"></circle>
                <circle id="Oval" cx="55.5" cy="50.5" r="1"></circle>
                <circle id="Oval" cx="40.5" cy="70.5" r="2.5"></circle>
                <circle id="Oval" cx="45.5" cy="62.5" r="1.5"></circle>
                <circle id="Oval" cx="49" cy="55" r="1"></circle>
                <circle id="Oval" cx="52.5" cy="49.5" r="1"></circle>
                <circle id="Oval" cx="32" cy="65" r="2"></circle>
                <circle id="Oval" cx="39.5" cy="57.5" r="1.5"></circle>
                <circle id="Oval" cx="45" cy="52" r="1"></circle>
                <circle id="Oval" cx="26" cy="57" r="2"></circle>
                <circle id="Oval" cx="35" cy="52" r="1"></circle>
                <circle id="Oval" cx="43" cy="48" r="1"></circle>
                <circle id="Oval" cx="23" cy="29" r="2"></circle>
                <circle id="Oval" cx="26" cy="21" r="2"></circle>
                <circle id="Oval" cx="35" cy="26" r="1"></circle>
                <circle id="Oval" cx="43" cy="30" r="1"></circle>
                <circle id="Oval" cx="32" cy="13" r="2"></circle>
                <circle id="Oval" cx="39.5" cy="20.5" r="1.5"></circle>
                <circle id="Oval" cx="45" cy="26" r="1"></circle>
                <circle id="Oval" cx="40.5" cy="7.5" r="2.5"></circle>
                <circle id="Oval" cx="45.5" cy="15.5" r="1.5"></circle>
                <circle id="Oval" cx="49" cy="23" r="1"></circle>
                <circle id="Oval" cx="52.5" cy="28.5" r="1"></circle>
                <circle id="Oval" cx="48.5" cy="3.5" r="2.5"></circle>
                <circle id="Oval" cx="51.5" cy="13.5" r="1.5"></circle>
                <circle id="Oval" cx="53.5" cy="21.5" r="1.5"></circle>
                <circle id="Oval" cx="55.5" cy="27.5" r="1"></circle>
                <ellipse id="Oval" cx="59" cy="2.5" rx="3" ry="2.5"></ellipse>
                <circle id="Oval" cx="59" cy="12" r="2"></circle>
                <circle id="Oval" cx="58.5" cy="20.5" r="1.5"></circle>
                <circle id="Oval" cx="59" cy="27" r="1"></circle>
                <circle id="Oval" cx="94" cy="49" r="4"></circle>
                <circle id="Oval" cx="84.5" cy="45.5" r="2.5"></circle>
                <circle id="Oval" cx="77" cy="44" r="2"></circle>
                <circle id="Oval" cx="70.5" cy="42.5" r="1.5"></circle>
                <path d="M30.626479,45.3946638 C30.626479,47.2448496 30.626479,48.9665503 30.626479,50.7139481 C30.626479,51.639041 30.388741,52.0244964 29.3585428,51.9987993 C27.1132392,51.9987993 27.1132392,51.9987993 27.1132392,49.8659462 C27.1132392,44.9835114 27.1132392,40.1010765 27.1132392,35.2443387 C27.1132392,34.601913 26.6113479,33.6511231 27.720792,33.3684558 C28.8302361,33.0857885 29.4113735,33.599729 29.6491115,34.7303982 C30.9104706,33.5417208 32.6237868,32.9178625 34.3774568,33.0086975 C35.7068323,33.1222721 36.9560803,33.6754953 37.9171119,34.576216 C40.1755362,36.7651453 40.6513509,40.1525548 39.0793867,42.8506582 C37.5208818,45.574543 34.8265175,46.4225448 30.626479,45.3946638 Z M30.626479,39.3558628 C30.626479,42.3624148 31.2076164,43.0305374 33.4265047,42.8249612 C34.7473112,42.7481357 35.8772572,41.874924 36.2529457,40.640714 C36.7711379,39.3594028 36.448338,37.9007201 35.4340702,36.9403424 C34.6118119,36.0622984 33.3096849,35.7842383 32.1849838,36.2465227 C30.4415716,36.8632513 30.5208176,38.2765877 30.626479,39.3558628 Z" id="Shape"></path>
                <path d="M5.17059016,39.588751 C6.23079393,37.5736175 7.16170456,35.7909994 8.11847382,34.0083812 C8.35120148,33.5691855 8.50635325,32.9749794 9.12696034,33.0008145 C9.74756742,33.0266495 9.87686057,33.5950205 10.1095882,34.0342163 C11.0663575,35.8168344 11.9972681,37.5994525 13.0316133,39.588751 L14.7124241,34.421742 C15.3642222,33.4089586 16.6298746,32.9803152 17.7637423,33.3883402 C18.1516217,33.6208556 17.99647,33.9308761 17.7637423,34.2408967 L14.3762619,45.0916156 C14.3762619,45.5049763 14.1435343,45.944172 13.6263617,45.9958421 C13.1091891,46.0475122 12.8506029,45.6083165 12.6178752,45.1949557 C11.4542369,42.9473068 10.26474,40.6996579 8.97180856,38.2453286 C7.75645302,40.5704827 6.64453199,42.7147914 5.50675233,44.8332651 C5.24816604,45.349966 5.09301427,46.0733473 4.29139678,45.9700071 C3.4897793,45.8666669 3.61907244,45.1691207 3.46392067,44.6782548 C2.35199964,41.2938639 1.29179586,37.909473 0.128157575,34.5250821 C-0.208004597,33.5175154 0.128157575,33.3883402 1.00735095,33.310835 C2.50715141,33.1816598 3.3087689,33.5950205 3.59321381,35.1709583 C4.03424961,36.6724046 4.56090222,38.1474122 5.17059016,39.588751 L5.17059016,39.588751 Z" id="Path"></path>
                <path d="M58.7579643,45.9948504 C56.1057118,46.1001676 53.655891,44.5822223 52.5695095,42.1603919 C51.483128,39.7385615 51.9784815,36.8994845 53.8208143,34.988643 C55.663147,33.0778015 58.482264,32.4791567 60.9421424,33.4764155 C63.4020208,34.4736743 65.0083769,36.8664493 64.9999671,39.5207678 C65.0021762,43.0075767 62.242546,45.8698261 58.7579643,45.9948504 Z M61.9305357,39.4691814 C61.8183272,37.7055274 60.3173982,36.3547729 58.5517063,36.4284186 C56.7860143,36.5020644 55.4027818,37.9731152 55.4378303,39.7399876 C55.4728787,41.5068599 56.9133609,42.9218988 58.6805845,42.9254646 C60.5143572,42.8288897 61.9468839,41.3054152 61.9305357,39.4691814 Z" id="Shape"></path>
                <path d="M44.5525345,34.934258 C45.7699728,33.40343 47.7737073,32.6978882 49.70196,33.1210761 C50.3253115,33.2810628 51.3280944,33.414385 50.8944585,34.2943114 C50.4608227,35.1742379 50.7589473,36.6141176 49.0515062,36.3741377 C46.5581002,36.0275 45.745033,36.7207754 45.745033,39.0405815 C45.745033,40.9604211 45.745033,42.8535962 45.745033,44.7734358 C45.745033,45.7066912 45.3927039,46 44.4712277,46 C42.1133329,46 42.1133329,46 42.1133329,43.7068583 C42.1133329,40.8804278 42.1133329,38.0539973 42.1133329,35.2542312 C42.1133329,34.5876203 41.5983903,33.601036 42.7637866,33.3343916 C43.9291829,33.0677473 44.4441255,33.601036 44.5525345,34.934258 Z" id="Path"></path>
                <path d="M24,39.9168738 C24,41.5351641 24,43.1534544 24,44.7970305 C24,45.6567472 23.6992481,46.0866055 22.6165414,45.9854624 C22.1363921,45.9475986 21.6530816,45.9475986 21.1729323,45.9854624 C20.3909774,45.9854624 20,45.7578903 20,45.0498883 C20,41.6615931 20,38.2732978 20,34.9355741 C20,34.3034294 20.2706767,34 21.0225564,34 L22.7969925,34 C23.7293233,34 24,34.354001 24,35.0872888 C23.9699248,36.6550075 24,38.2732978 24,39.9168738 Z" id="Path"></path>
            </g>
            <g id="time-warner" transform="translate(214.000000, 0.000000)" fill="#000000" fill-opacity="0.85" fill-rule="nonzero">
                <path d="M0,20.1139764 C0,20.752444 0.334717752,21.3684621 0.923021081,21.6998187 C1.79062441,22.1869758 2.88078106,21.864599 3.36224106,20.9859203 C8.93139435,10.8238678 18.7383709,4.07954796 29.9046075,4.07954796 C39.6264641,4.07954796 49.496394,10.1701344 55.8467006,19.2276647 C52.538104,23.9138019 48.443034,27.6947697 44.1990041,30.1803934 C45.3117707,28.3916064 46.058344,26.311872 46.058344,24.0758882 C46.058344,15.7093577 38.8266908,8.92777147 29.9046075,8.92777147 C19.3306643,8.92777147 10.7592577,17.3374053 10.7592577,27.7118314 C10.7592577,40.7658461 21.6191509,51.5255079 35.6098641,52.9914691 L35.7951775,53 C36.7141829,53 37.4849898,52.2975097 37.5818108,51.3719524 C37.6320591,50.8924573 37.4919699,50.4124068 37.1924213,50.037613 C36.8928728,49.6628191 36.4584558,49.42405 35.9849241,49.3739347 C23.8007942,48.1014893 14.3489276,38.8886074 14.3489276,27.7118314 C14.3489276,19.3448518 21.3128076,12.5628166 29.9046075,12.5628166 C36.8432175,12.5628166 42.4686741,17.7177022 42.4686741,24.0758882 C42.4686741,29.0372579 38.1430708,33.1648481 33.4942775,33.1648481 C28.8689809,33.1648481 25.1183809,29.9092018 25.1183809,25.8938598 C25.1183809,23.2160672 27.2605675,21.0456363 29.9046075,21.0456363 C31.9687675,21.0456363 33.6849108,22.5591908 34.0298241,24.5509226 C34.1124306,25.0259605 34.3780104,25.4482969 34.7681225,25.7249961 C35.1582347,26.0016953 35.6409131,26.1100846 36.1099441,26.0263127 C37.0851299,25.8498803 37.7357369,24.9078886 37.5649641,23.9196388 C36.9247908,20.2203877 33.7394408,17.4101422 29.9046075,17.4101422 C25.2793109,17.4101422 21.5291542,21.2077227 21.5291542,25.8938598 C21.5291542,31.9175463 26.8855075,36.7989953 33.4942775,36.7989953 C42.7111774,36.7989953 53.3192573,29.8539757 60.1598906,19.2276647 C53.2766973,8.09084902 41.5802341,0.444053811 29.9046075,0.444053811 C17.3937409,0.444053811 6.41060104,7.94447739 0.226101086,19.2276647 C0.0774872068,19.4988009 0,19.8038663 0,20.1139764 M71.0720972,2.76804019 L71.0720972,13.6893394 C71.0720972,14.8109232 70.3614338,15.3380407 69.4645705,15.3380407 L69.4233405,15.3380407 C68.5278072,15.3380407 67.8162572,14.8109232 67.8162572,13.6893394 L67.8162572,2.76804019 L64.8969072,2.76804019 C64.1467872,2.76804019 63.7486739,2.36529371 63.7486739,1.62670067 L63.7486739,1.58494434 C63.7486739,0.845902306 64.1467872,0.444502804 64.8969072,0.444502804 L73.9923338,0.444502804 C74.7433405,0.444502804 75.1392371,0.845902306 75.1392371,1.58494434 L75.1392371,1.62670067 C75.1392371,2.36529371 74.7433405,2.76804019 73.9923338,2.76804019 L71.0720972,2.76804019 L71.0720972,2.76804019 Z M79.5814371,13.8164043 C79.5814371,14.8109232 78.9780604,15.3375917 78.0811971,15.3375917 L78.0390804,15.3375917 C77.1422171,15.3375917 76.5370671,14.8109232 76.5370671,13.8164043 L76.5370671,5.59893936 C76.5370671,4.54201047 76.9538005,4.03464868 77.9770138,4.03464868 L78.0390804,4.03464868 C79.0605204,4.03464868 79.5814371,4.68972908 79.5814371,6.23201911 L79.5814371,13.8155063 L79.5814371,13.8164043 Z M78.0811971,3.27540198 C77.1630538,3.27540198 76.4107171,2.55701361 76.4107171,1.64780332 C76.4107171,0.739491029 77.1630538,0 78.0811971,0 C78.9975671,0 79.7290671,0.739491029 79.7290671,1.64780332 C79.7290671,2.55701361 78.9975671,3.27540198 78.0811971,3.27540198 M85.1732004,6.95040748 L85.1732004,13.8164043 C85.1732004,14.8104742 84.5662771,15.3375917 83.6703004,15.3375917 L83.6281837,15.3375917 C82.7326504,15.3375917 82.1283871,14.8104742 82.1283871,13.8164043 L82.1283871,5.59893936 C82.1283871,4.54245946 82.5664004,4.03509768 83.5674471,4.03509768 L83.6295137,4.03509768 C84.3822937,4.03509768 84.8823737,4.39474085 85.0690171,5.34615645 C86.0496704,4.58601176 87.489617,3.97223869 88.969907,3.97223869 C90.0959737,3.97223869 91.1187437,4.31122821 91.5771503,5.38746378 C92.6837103,4.52135681 94.1839503,3.97223869 95.6247836,3.97223869 C97.1689136,3.97223869 98.4820669,4.69062706 98.4820669,7.07837041 L98.4820669,13.8168533 C98.4820669,14.8109232 97.8778036,15.3380407 96.9809403,15.3380407 L96.9397103,15.3380407 C96.0419603,15.3380407 95.4368103,14.8109232 95.4368103,13.8168533 L95.4368103,7.86051575 C95.4368103,6.80358686 95.0821436,6.44484167 94.1657737,6.44484167 C93.2879737,6.44484167 92.4740137,6.71872723 91.8271903,6.97106115 L91.8271903,13.8164043 C91.8271903,14.8104742 91.222927,15.3375917 90.3260637,15.3375917 L90.2830603,15.3375917 C89.386197,15.3375917 88.7801604,14.8104742 88.7801604,13.8164043 L88.7801604,7.86051575 C88.7801604,6.80358686 88.4277104,6.44484167 87.508237,6.44484167 C86.6322104,6.44484167 85.8399737,6.71872723 85.1736437,6.95040748 M103.486414,8.51469816 L107.55444,8.51469816 C107.491487,6.54990597 106.84688,5.91592823 105.656087,5.91592823 C104.592974,5.91592823 103.71606,6.44439267 103.486414,8.51469816 M103.446514,10.3735281 C103.590154,12.5915522 104.634647,13.2048762 106.325077,13.2048762 C108.160477,13.2048762 108.59716,12.2956659 109.30738,12.2956659 C109.870414,12.2956659 110.22508,12.6755138 110.22508,13.3516969 L110.22508,13.4163518 C110.22508,14.0081242 109.912974,14.4301774 109.2861,14.7462683 C108.49342,15.1476678 107.40814,15.380246 105.864454,15.380246 C102.277887,15.380246 100.316137,13.2250809 100.316137,9.73910134 C100.316137,6.16960912 102.611717,3.97223869 105.656087,3.97223869 C109.03606,3.97223869 110.559354,6.08564748 110.559354,8.97940564 C110.559354,9.86661527 110.079224,10.3739771 109.099014,10.3739771 L103.446514,10.3739771 L103.446514,10.3735281 Z M78.7368871,19.707638 C78.9239738,18.7997747 79.4453338,18.3561698 80.1551104,18.3561698 L80.2180638,18.3561698 C81.3020138,18.3561698 81.7409138,19.1796225 81.5103804,20.2141018 L78.8619071,31.4748395 C78.5280771,32.8909625 77.8183005,33.35567 76.7112971,33.35567 L76.5889371,33.35567 C75.4610971,33.35567 74.7522071,32.8689619 74.4179338,31.4339811 L72.6450438,23.5734654 L72.6038138,23.5734654 L70.8304805,31.4743905 C70.5170438,32.8909625 69.7877605,33.35567 68.6825305,33.35567 L68.5566239,33.35567 C67.4305572,33.35567 66.7207805,32.8909625 66.3869505,31.4537368 L63.8209372,20.4884363 C63.5505039,19.2842378 64.0505839,18.3557208 65.2404906,18.3557208 L65.3238372,18.3557208 C66.0947939,18.3557208 66.7203372,18.8832873 66.9295905,19.8342539 L68.8908972,29.1728537 L68.9325705,29.1728537 L71.0818505,19.9828705 C71.3509538,18.840633 71.8940372,18.3561698 72.8112938,18.3561698 L72.8538538,18.3561698 C73.7502738,18.3561698 74.2938005,18.840633 74.5642338,20.0021772 L76.7751371,29.1728537 L76.8163671,29.1728537 L78.7368871,19.708087 L78.7368871,19.707638 Z M88.3598804,30.5871808 L88.3598804,28.475119 C87.8428239,28.3870067 87.3192306,28.344194 86.7949137,28.3471561 C85.5651071,28.3471561 84.7710971,28.7907609 84.7710971,29.8683435 C84.7710971,30.947273 85.4609237,31.4335321 86.4819204,31.4335321 C87.2338137,31.4335321 87.8598004,31.0518883 88.3598804,30.5871808 M88.527017,32.1523695 C87.733007,33.0382322 86.691617,33.3763237 85.3567404,33.3763237 C83.3112004,33.3763237 81.8091871,32.2349842 81.8091871,30.0380627 C81.8091871,27.7131784 83.6450304,26.5731858 86.168927,26.5731858 C87.0671204,26.5731858 87.6913337,26.6575964 88.3598804,26.8259687 L88.3598804,25.7708358 C88.3598804,24.7565612 87.8172404,24.2285458 86.3569004,24.2285458 C84.6469637,24.2285458 84.3339704,25.0946528 83.5208971,25.0946528 C82.9560904,25.0946528 82.6027537,24.6290473 82.6027537,24.0390708 L82.6027537,23.9744159 C82.6027537,23.2982328 82.8714137,22.854628 83.6667537,22.5385371 C84.4807137,22.2206503 85.5229904,21.987623 86.837917,21.987623 C89.8614504,21.987623 91.4060237,23.0032446 91.4060237,25.5593602 L91.4060237,31.7913793 C91.4060237,32.8469613 91.048697,33.354323 90.0702604,33.354323 L90.0081937,33.354323 C89.2780237,33.354323 88.7779437,32.9547195 88.527017,32.1523695 M96.8071536,23.5101574 C97.517817,22.7064604 98.7059503,22.0316243 99.5593669,22.0316243 C100.226584,22.0316243 100.64509,22.3683689 100.64509,23.2798241 L100.64509,23.3413361 C100.64509,24.2496484 100.248307,24.6523949 99.3518869,24.7359076 C98.2462136,24.8198692 97.4757003,25.0111401 96.8909436,25.2414734 L96.8909436,31.8335847 C96.8909436,32.8285525 96.2857936,33.354772 95.3880436,33.354772 L95.3477003,33.354772 C94.4499503,33.354772 93.845687,32.8285525 93.845687,31.8335847 L93.845687,23.6170177 C93.845687,22.5591908 94.284587,22.052727 95.284747,22.052727 L95.3477003,22.052727 C96.076097,22.052727 96.598787,22.5389861 96.8071536,23.5101574 M105.339104,24.9684858 L105.339104,31.8344826 C105.339104,32.8281036 104.733954,33.35567 103.83709,33.35567 L103.794087,33.35567 C102.897224,33.35567 102.292074,32.8272056 102.292074,31.8344826 L102.292074,23.6165687 C102.292074,22.5587418 102.730974,22.052278 103.733794,22.052278 L103.794087,22.052278 C104.54598,22.052278 105.047834,22.4123702 105.234034,23.3830925 C106.255917,22.6018451 107.800934,21.988521 109.28211,21.988521 C110.867027,21.988521 112.223184,22.6018451 112.223184,25.0946528 L112.223184,31.8340336 C112.223184,32.8281036 111.615817,33.35567 110.719397,33.35567 L110.678167,33.35567 C109.781304,33.35567 109.177927,32.8272056 109.177927,31.8344826 L109.177927,25.8754511 C109.177927,24.7790109 108.759864,24.461124 107.819554,24.461124 C106.883677,24.461124 106.027157,24.7139069 105.339104,24.9684858 M117.229747,26.5300825 L121.296887,26.5300825 C121.23482,24.5661883 120.58711,23.9322106 119.398977,23.9322106 C118.33409,23.9322106 117.458063,24.460675 117.229747,26.5300825 M117.188073,28.3889124 C117.334373,30.6082835 118.376207,31.2202606 120.065307,31.2202606 C121.902037,31.2202606 122.339163,30.3132953 123.049827,30.3132953 C123.610643,30.3132953 123.966197,30.6917961 123.966197,31.3679792 L123.966197,31.4335321 C123.966197,32.0235086 123.65409,32.4473577 123.028103,32.7634486 C122.235867,33.1648481 121.150143,33.3956304 119.607787,33.3956304 C116.019003,33.3956304 114.057253,31.2422612 114.057253,27.7562817 C114.057253,24.1867894 116.352833,21.987623 119.398977,21.987623 C122.778063,21.987623 124.3018,24.1010318 124.3018,26.996586 C124.3018,27.8837956 123.82034,28.3893614 122.841017,28.3893614 L117.188517,28.3893614 L117.188073,28.3889124 Z M129.160733,23.5101574 C129.86918,22.7064604 131.059087,22.0316243 131.913833,22.0316243 C132.580607,22.0316243 133,22.3683689 133,23.2798241 L133,23.3413361 C133,24.2496484 132.60233,24.6523949 131.705467,24.7359076 C130.600237,24.8198692 129.82795,25.0111401 129.243193,25.2414734 L129.243193,31.8335847 C129.243193,32.8285525 128.63893,33.354772 127.742067,33.354772 L127.700837,33.354772 C126.803087,33.354772 126.196607,32.8285525 126.196607,31.8335847 L126.196607,23.6170177 C126.196607,22.5591908 126.635507,22.052727 127.636997,22.052727 L127.700837,22.052727 C128.431007,22.052727 128.951923,22.5389861 129.16029,23.5101574 M70.7161005,51.4352603 C66.5022172,51.4352603 63.7491172,48.6452195 63.7491172,43.9146321 C63.7491172,39.1822487 66.7323072,36.3086952 70.9665838,36.3086952 C72.2611172,36.3086952 73.2608338,36.4779655 74.1164671,36.8555684 C74.9078171,37.2165585 75.2846505,37.7028176 75.2846505,38.4634113 L75.2846505,38.5262703 C75.2846505,39.3088646 74.8280171,39.7942258 74.2020305,39.7942258 C73.2825572,39.7942258 72.7620838,38.6959896 70.9036305,38.6959896 C68.5060839,38.6959896 67.0865305,40.4919605 67.0865305,43.7857712 C67.0865305,47.378162 68.3602272,49.0704156 70.8632872,49.0704156 C73.1792605,49.0704156 73.3871838,47.6111892 74.4099538,47.6111892 C75.0780571,47.6111892 75.4952338,48.0767947 75.4952338,48.7740804 L75.4952338,48.8786957 C75.4952338,49.6599431 75.0984505,50.2301638 74.1173538,50.7384236 C73.3033938,51.1591298 71.9893538,51.4352603 70.7156572,51.4352603 M83.5665604,48.6034632 L83.5665604,46.4909524 C83.0493501,46.4044222 82.5258023,46.3626646 82.0015938,46.3661324 C80.7700138,46.3661324 79.9777771,46.8088392 79.9777771,47.8855238 C79.9777771,48.9631064 80.6658304,49.4493655 81.6886004,49.4493655 C82.4396071,49.4493655 83.0655937,49.0704156 83.5665604,48.6030142 M83.7328104,50.1682028 C82.9392437,51.0545145 81.8974104,51.393953 80.5634204,51.393953 C78.5183238,51.393953 77.0167538,50.2517155 77.0167538,48.0538961 C77.0167538,45.7312567 78.8508238,44.5899171 81.3764938,44.5899171 C82.2729137,44.5899171 82.8993437,44.6743278 83.5665604,44.843149 L83.5665604,43.7875671 C83.5665604,42.7746395 83.0252504,42.2430321 81.5644671,42.2430321 C79.8536438,42.2430321 79.5397638,43.1104861 78.7275771,43.1104861 C78.1618838,43.1104861 77.8076605,42.6457786 77.8076605,42.0549042 L77.8076605,41.9920452 C77.8076605,41.3140662 78.0789804,40.8727063 78.8716604,40.5548195 C79.6856204,40.2378306 80.7292271,40.0052524 82.0428238,40.0052524 C85.0663571,40.0052524 86.6109304,41.019078 86.6109304,43.5760916 L86.6109304,49.8090087 C86.6109304,50.8650396 86.2575937,51.3732993 85.2769404,51.3732993 L85.2139871,51.3732993 C84.4824871,51.3724013 83.9837371,50.9705529 83.7332537,50.1682028 M92.0971803,42.9214602 L92.0971803,48.6245658 C92.6189837,49.047966 93.2024103,49.2791972 94.0793237,49.2791972 C95.331297,49.2791972 96.5398236,48.7314261 96.5398236,45.836321 C96.5398236,42.9632165 95.4554303,42.37324 94.1218837,42.37324 C93.5162903,42.37324 92.7222803,42.624676 92.0971803,42.9214602 M92.0971803,38.5684756 L92.0971803,41.2310025 C92.9111403,40.5341658 93.995977,40.0057014 95.415087,40.0057014 C97.5209203,40.0057014 99.6276403,41.4002728 99.6276403,45.5610884 C99.6276403,49.851663 97.312997,51.4137087 94.956237,51.4137087 C93.537127,51.4137087 92.534307,50.9916555 91.7850737,50.3567798 C91.4711937,51.0136562 90.950277,51.3715034 90.4267003,51.3715034 L90.3668503,51.3715034 C89.531167,51.3715034 89.051037,50.9278985 89.051037,49.8090087 L89.051037,37.9358449 C89.051037,36.9211213 89.4691004,36.3706562 90.490097,36.3706562 L90.5548237,36.3706562 C91.6188237,36.3706562 92.0971803,37.0257366 92.0971803,38.5680266 M104.675877,38.5684756 L104.675877,49.851663 C104.675877,50.8430389 104.070727,51.3715034 103.172977,51.3715034 L103.131747,51.3715034 C102.23311,51.3715034 101.629734,50.8421409 101.629734,49.851214 L101.629734,37.9362939 C101.629734,36.9215703 102.04691,36.3711052 103.068794,36.3711052 L103.131747,36.3711052 C104.17491,36.3711052 104.675877,37.0261856 104.675877,38.5680266 M109.787067,44.5468138 L113.853763,44.5468138 C113.791697,42.5838176 113.146203,41.9498399 111.954524,41.9498399 C110.892297,41.9498399 110.015384,42.4783043 109.786624,44.5468138 M109.74362,46.4065417 C109.88992,48.6254638 110.93264,49.2387879 112.6244,49.2387879 C114.4598,49.2387879 114.89737,48.3286796 115.605817,48.3286796 C116.16885,48.3286796 116.523517,48.7094255 116.523517,49.3851595 L116.523517,49.4489165 C116.523517,50.0411379 116.21141,50.464987 115.58631,50.7797309 C114.791857,51.1815794 113.70835,51.4137087 112.163777,51.4137087 C108.578097,51.4137087 106.61546,49.2594416 106.61546,45.773462 C106.61546,42.2030718 108.911927,40.0061504 111.954524,40.0061504 C115.335383,40.0061504 116.858677,42.1182122 116.858677,45.0128683 C116.858677,45.9000779 116.378547,46.4065417 115.398337,46.4065417 L109.74362,46.4065417 L109.74362,46.4065417 Z M120.385837,42.1361719 L120.69883,42.1361719 C120.97547,42.1361719 121.075663,42.0104539 121.075663,41.7814676 C121.075663,41.5794209 120.97547,41.4402331 120.69883,41.4402331 L120.385837,41.4402331 L120.385837,42.1361719 L120.385837,42.1361719 Z M121.63781,43.0377493 C121.76283,43.2653886 121.62451,43.4710273 121.40107,43.4710273 L121.38777,43.4710273 C121.238367,43.4710273 121.13773,43.3794327 121.037537,43.1899578 L120.687303,42.5425103 L120.385837,42.5425103 L120.385837,43.177835 C120.385837,43.3933515 120.260817,43.4710273 120.09634,43.4710273 L120.072843,43.4710273 C119.909253,43.4710273 119.77049,43.3938005 119.77049,43.177835 L119.77049,41.4402331 C119.77049,41.1349181 119.97132,41.0347927 120.185007,41.0347927 L120.748927,41.0347927 C121.374913,41.0347927 121.675493,41.3005964 121.675493,41.7810186 C121.675493,42.0733129 121.524317,42.3018502 121.274277,42.4284661 L121.63781,43.0377493 L121.63781,43.0377493 Z M120.67356,44.1288016 C121.713177,44.1288016 122.491227,43.4440877 122.491227,42.2762576 C122.491227,41.1102235 121.713177,40.4246116 120.67356,40.4246116 C119.621087,40.4246116 118.844367,41.1088765 118.844367,42.2762576 C118.844367,43.4440877 119.621087,44.1288016 120.67356,44.1288016 M120.67356,44.5463649 C119.408287,44.5463649 118.38197,43.671727 118.38197,42.2762576 C118.38197,40.8816862 119.408287,40.0057014 120.674003,40.0057014 C121.913563,40.0057014 122.966923,40.8812372 122.966923,42.2762576 C122.966923,43.671727 121.913563,44.5463649 120.67356,44.5463649" id="Shape"></path>
            </g>
            <g id="cts" transform="translate(0.000000, 10.000000)" fill="#000000" fill-opacity="0.85" fill-rule="nonzero">
                <path d="M90.6960494,20.2588391 L100.091885,11.241715 L90.8377152,11.241715 L90.8377152,6.99544788 L106.665977,6.99544788 L106.665977,11.3109263 L97.268944,20.2934447 L106.844755,20.2934447 L106.844755,24.5397119 L90.6992419,24.5397119 L90.6960494,20.2588391 Z M84.0197986,1.22496038 L88.9150507,1.22496038 L88.9150507,5.58998773 L84.0197986,5.58998773 L84.0197986,1.22496038 Z M83.9539539,7.04814281 L88.848807,7.04814281 L88.848807,24.5928 L83.9539539,24.5928 L83.9539539,7.04814281 Z M24.749616,15.7675799 C24.769569,10.7529106 28.9213749,6.70169334 34.0277291,6.71424797 C39.1340833,6.72725431 43.2647391,10.7993136 43.2579635,15.8139829 C43.2515702,20.8286521 39.1105388,24.8905005 34.0037856,24.8905005 C31.5440484,24.8946532 29.1837747,23.9339031 27.4440599,22.2203487 C25.7077656,20.5101671 24.7377098,18.1866919 24.7500151,15.7675799 L24.749616,15.7675799 Z M38.5051669,15.7675799 C38.5051669,13.2763683 36.5042869,11.2031769 34.0037856,11.2031769 C31.467369,11.2031769 29.5371224,13.2740088 29.5371224,15.7675799 C29.5371224,18.2611509 31.467369,20.3319828 34.0041846,20.3319828 C36.5042869,20.3284436 38.5063641,18.2587914 38.5063641,15.7675799 L38.5051669,15.7675799 Z M65.3478454,6.99544788 L70.2083795,6.99544788 L70.2083795,8.96049668 C71.3508843,7.51925116 73.1011555,6.64427947 75.1375517,6.64427947 C79.3548032,6.64427947 81.8916189,9.31127185 81.8916189,13.8371367 L81.8916189,24.5397119 L76.9245362,24.5397119 L76.9245362,14.4690825 C76.9245362,12.1182597 75.8163504,10.7454389 73.6382884,10.7454389 C71.7802714,10.7454389 70.2438957,12.0077577 70.2438957,14.9496288 L70.2438957,24.5290942 L65.3514369,24.5290942 L65.3478454,6.99544788 Z M107.123697,15.7675799 C107.123697,9.55626393 111.771533,6.63877403 115.807612,6.63877403 C118.131729,6.63877403 119.952634,7.47953335 121.131054,8.70960592 L121.131054,6.99505464 L126.023512,6.99505464 L126.023512,24.5397119 L121.131054,24.5397119 L121.131054,22.5746631 C119.952634,23.9431581 118.058302,24.8908803 115.736579,24.8908803 C111.948715,24.8908803 107.123697,21.9478294 107.123697,15.7675799 Z M121.271522,15.7329742 C121.271522,13.1359796 119.342473,11.0301488 116.69831,11.0301488 C113.982716,11.0301488 111.910804,13.0301965 111.910804,15.7329742 C111.910804,18.4353587 113.982716,20.4692255 116.697911,20.4692255 C119.344867,20.4692255 121.273917,18.3283959 121.273917,15.7329742 L121.271522,15.7329742 Z M128.002045,6.99505464 L132.861781,6.99505464 L132.861781,8.96049668 C134.005084,7.51925116 135.755355,6.64427947 137.79215,6.64427947 C142.008205,6.64427947 144.54502,9.31127185 144.54502,13.8371367 L144.54502,24.5397119 L139.577938,24.5397119 L139.577938,14.4690825 C139.577938,12.1182597 138.476935,10.7454389 136.291291,10.7454389 C134.433274,10.7454389 132.897297,12.0077577 132.897297,14.9496288 L132.897297,24.5290942 L128.004839,24.5290942 L128.002045,6.99505464 Z M90.6960494,24.5397119 L90.6960494,20.2588391 L100.092284,11.241715 L90.8381143,11.241715 L90.8381143,6.99544788 L106.666376,6.99544788 L106.666376,11.3109263 L97.2693431,20.2934447 M19.5279339,15.6150005 L19.4608921,15.7546028 C18.1092805,18.5521527 15.6239434,20.1565952 12.6417782,20.1565952 C8.31797802,20.1565952 4.93595615,16.8006363 4.93595615,12.5174041 C4.93595615,8.12484955 8.29483262,4.81293421 12.7495241,4.81293421 C15.6359151,4.81293421 17.8295404,6.14013847 19.2689449,8.75994137 L19.3459632,8.89915035 L23.7024862,6.16412646 L23.6290594,6.04418652 C21.3667961,2.25919659 17.2987924,0 12.7499231,0 C5.48107024,-0.000393245707 0,5.38196075 0,12.5193703 C0,19.7747536 5.36215077,25.0403136 12.7499231,25.0403136 C17.5114907,25.0403136 21.7179676,22.444892 24.0025783,18.0975607 L24.0712164,17.9666099 L19.5279339,15.6150005 Z M44.4906472,15.7675799 C44.4906472,9.55626393 49.1384831,6.63877403 53.1749611,6.63877403 C55.4986795,6.63877403 57.3187859,7.58649618 58.4980041,8.88381377 L58.4980041,6.99544788 L63.3904629,6.99544788 L63.3904629,24.0520872 C63.3904629,28.9999047 60.2099656,33 54.1718095,33 C49.6341139,33 46.3119508,30.682603 44.8761379,27.9467927 L49.1999381,25.560971 C50.1281485,27.385631 51.7682794,28.5433464 54.1658236,28.5433464 C56.8099861,28.5433464 58.4880276,26.5086931 58.4880276,24.2274748 L58.4880276,22.5746631 C57.3092084,23.9431581 55.4156753,24.8908803 53.0943512,24.8908803 C49.3136698,24.8908803 44.4906472,21.9478294 44.4906472,15.7675799 L44.4906472,15.7675799 Z M58.6384727,15.7329742 C58.6384727,13.1359796 56.7098224,11.0301488 54.0652609,11.0301488 C51.350066,11.0301488 49.2781536,13.0301965 49.2781536,15.7329742 C49.2781536,18.4353587 51.350066,20.4692255 54.0652609,20.4692255 C56.7098224,20.4692255 58.6384727,18.3283959 58.6384727,15.7329742 Z M156.599384,11.3113195 L156.599384,6.99544788 L153.240907,6.99544788 L153.240907,1.20805081 L148.348448,1.20805081 L148.348448,6.99544788 L145.308819,6.99544788 L145.308819,11.3109263 L148.342462,11.3109263 L148.342462,16.9252952 C148.342462,22.645054 150.20008,24.5393186 155.881478,24.5393186 L156.595793,24.5393186 L156.595793,20.0488459 C153.594473,20.0488459 153.237315,19.6268932 153.237315,16.8910829 L153.237315,11.3109263 L156.599384,11.3113195 Z M157.638134,3.30169096 C157.403854,3.53328225 157.085662,3.66344995 156.75382,3.66344995 C156.421979,3.66344995 156.103786,3.53328225 155.869506,3.30169096 C155.630781,3.07361306 155.497979,2.75867599 155.502372,2.43104496 C155.504003,1.87515649 155.884695,1.3898048 156.430184,1.24816187 C156.975801,1.1053399 157.55087,1.34042798 157.833673,1.82190736 C158.115484,2.30286409 158.033053,2.91055836 157.632946,3.30169096 L157.638134,3.30169096 Z M155.994012,1.68623759 C155.789451,1.88200187 155.676205,2.15245019 155.681151,2.43340444 C155.676362,2.71496836 155.788497,2.9863079 155.991618,3.18529023 C156.193073,3.38472848 156.466864,3.49684922 156.752423,3.49684922 C157.037983,3.49684922 157.311774,3.38472848 157.513229,3.18529023 C157.717955,2.98765967 157.831229,2.7157812 157.82649,2.43340444 C157.829677,2.00418995 157.568009,1.61608407 157.16525,1.45264964 C156.762302,1.28871896 156.298774,1.38100624 155.992017,1.68623759 L155.994012,1.68623759 Z M156.72828,1.75466234 C156.854782,1.74797717 156.981683,1.76449349 157.102198,1.80263832 C157.242268,1.85769272 157.328864,1.99611521 157.314897,2.14358235 C157.322287,2.2497032 157.271426,2.35159435 157.181611,2.41059618 C157.120718,2.44508877 157.053404,2.46715517 156.983678,2.47548173 C157.077457,2.48452638 157.163254,2.53250235 157.218324,2.60761228 C157.264638,2.66742166 157.290738,2.74004427 157.292948,2.81524602 L157.292948,3.01462159 C157.293347,3.03821633 157.296939,3.06181108 157.304122,3.08422608 L157.312502,3.10113565 L157.086236,3.10113565 C157.085642,3.09669808 157.085642,3.09220286 157.086236,3.08776529 L157.086236,2.92338859 C157.102718,2.80496347 157.053149,2.68697749 156.956542,2.61469071 C156.871588,2.57962199 156.779436,2.56480144 156.687576,2.57143368 L156.496826,2.57143368 L156.496826,3.10113565 L156.252203,3.10113565 L156.252203,1.75466234 L156.72828,1.75466234 Z M156.988467,1.96583529 C156.896683,1.92651072 156.79612,1.90960115 156.696356,1.91667958 L156.489643,1.91667958 L156.489643,2.40430425 L156.708327,2.40430425 C156.786144,2.40823671 156.86396,2.39801232 156.938185,2.37441758 C157.016172,2.33994021 157.070143,2.26773842 157.080433,2.18412121 C157.090723,2.10050399 157.05583,2.01768248 156.988467,1.96583529 L156.988467,1.96583529 Z" id="Shape"></path>
            </g>
            <g id="nds" transform="translate(409.000000, 7.000000)" fill="#000000" fill-opacity="0.85" fill-rule="nonzero">
                <path d="M23.0028398,34 L22.9900608,34 C16.7617372,33.9985879 11.0921382,32.1678296 6.96240393,29.2116455 C2.6615736,26.1319047 0.000709942279,21.8278927 0,17.0310657 L0,17.0232993 C0.000709942279,13.7677548 1.22891008,10.7402609 3.36086675,8.16816187 L3.36086675,7.86809542 L3.61502608,7.86809542 C4.60775692,6.73380973 5.73073579,5.71913632 6.96098404,4.84483768 C10.7918326,2.10117127 15.9481433,0.329014116 21.64685,0.0854307622 C22.0589821,0.0284901644 22.4745787,0 22.8906689,0 L22.8977683,0 C23.2889465,0 23.6751551,0.0261235109 24.0556842,0.0748401816 C29.8701114,0.269000826 35.139303,2.05386667 39.0361762,4.84413164 C43.3370065,7.92316644 45.9978702,12.2271784 46,17.0247114 L46,17.0324778 C45.9985801,21.8278927 43.3377165,26.1319047 39.0375961,29.2109395 C34.9071519,32.1685356 29.2347131,33.999294 23.0028398,34 L23.0028398,34 Z M31.2438497,29.1283329 C33.3793561,28.4307667 35.3032997,27.4677299 36.9326172,26.301354 C37.1839368,26.1213141 37.426737,25.937744 37.6638578,25.7485256 L33.2586659,25.7485256 C32.8338799,26.6964508 32.3239678,27.6043308 31.7351298,28.4611264 C31.5753928,28.6898829 31.4121061,28.911579 31.2438497,29.1283329 L31.2438497,29.1283329 Z M40.8905454,22.1498464 C41.5791894,21.0152422 42.0463315,19.8022677 42.2550545,18.5405765 L35.0434608,18.5398705 C34.9550781,19.7562647 34.7677505,20.9635389 34.4833164,22.1498464 L40.8905454,22.1498464 L40.8905454,22.1498464 Z M42.1421737,14.9418972 C41.8610365,13.7232744 41.338519,12.5561924 40.6094083,11.4660687 L34.4776368,11.4660687 C34.7467049,12.5773736 34.9348396,13.7409254 35.0306819,14.9411912 L42.1421737,14.9418972 Z M37.0880946,7.86738938 C37.0360896,7.8288659 36.983789,7.79073869 36.9311973,7.75301111 C35.4076612,6.66288735 33.627126,5.75209742 31.6563262,5.06794591 C31.6825941,5.10465992 31.7088619,5.1406679 31.7337099,5.17738191 C32.3181271,6.02722496 32.8246904,6.92750364 33.2473068,7.86738938 L37.0880946,7.86738938 Z M14.0646665,5.16608529 C12.2039078,5.83823414 10.5177949,6.71372213 9.0659629,7.75442319 L8.91048554,7.86809542 L12.5425502,7.86809542 C12.9650837,6.92875586 13.471404,6.0289594 14.0554372,5.17950003 L14.0646665,5.16608529 L14.0646665,5.16608529 Z M5.38988178,11.4660687 C4.661481,12.5554864 4.13967343,13.7218623 3.85853628,14.9397791 L10.7591752,14.9397791 C10.8557274,13.7395133 11.0438621,12.5766675 11.3129302,11.4653626 L5.38988178,11.4653626 L5.38988178,11.4660687 Z M3.74352564,18.5384584 C3.95224866,19.8008556 4.42010063,21.0138301 5.10732475,22.1484343 L11.3051208,22.1491403 C11.0210327,20.9627925 10.8339439,19.7555271 10.7456863,18.5391644 L3.74352564,18.5384584 L3.74352564,18.5384584 Z M8.33472235,25.7471136 C8.57184307,25.937744 8.81606322,26.1213141 9.06809272,26.30206 C10.6242862,27.4168951 12.4502577,28.345336 14.4728833,29.0344298 C14.3308948,28.8480356 14.1917461,28.6574051 14.0568571,28.4618324 C13.466751,27.6044533 12.9561015,26.6955843 12.5311912,25.7464075 L8.33472235,25.7464075 L8.33472235,25.7471136 L8.33472235,25.7471136 Z M24.8139025,3.94181417 L24.8139025,7.86738938 L29.187147,7.86738938 C29.0522579,7.64428115 28.9116894,7.42540915 28.7668611,7.21571565 C27.6714202,5.63560103 26.3097509,4.48193378 24.8139025,3.94181417 Z M24.8139025,11.4660687 L24.8139025,14.9404851 L31.4014569,14.9404851 C31.2937736,13.7640891 31.0741276,12.6005036 30.7454703,11.4653626 L24.8139025,11.4653626 L24.8139025,11.4660687 L24.8139025,11.4660687 Z M24.8139025,18.5391644 L24.8139025,22.1491403 L30.7525697,22.1498464 C31.081273,21.0201844 31.3077445,19.8093281 31.4156558,18.5398705 L24.8139025,18.5391644 Z M24.8139025,25.7478196 L24.8139025,29.7016364 C26.3104608,29.1601047 27.6728401,28.0043193 28.7675711,26.4227926 C28.9180788,26.2046266 29.0629071,25.9808124 29.2027657,25.7485256 L24.8139025,25.7478196 L24.8139025,25.7478196 Z M21.1953267,29.7764765 L21.1953267,25.7478196 L16.5842516,25.7471136 C16.7248202,25.9808124 16.8717783,26.2060387 17.0237059,26.4242047 C18.1723925,28.0826896 19.6128654,29.2730709 21.1953267,29.7764765 Z M21.1953267,22.1491403 L21.1953267,18.5391644 L14.3749113,18.5391644 C14.4828225,19.808622 14.7092941,21.0201844 15.0372874,22.1491403 L21.1953267,22.1491403 Z M21.1953267,14.9404851 L21.1953267,11.4660687 L15.0443868,11.4660687 C14.716374,12.6010881 14.4969727,13.7644006 14.3891101,14.9404851 L21.1953267,14.9404851 Z M21.1953267,7.86738938 L21.1953267,3.86626803 C19.6128654,4.36967363 18.1709726,5.55864281 17.022996,7.21783377 C16.8774578,7.42682123 16.7368892,7.64498719 16.6012902,7.86809542 L21.1953267,7.86809542 L21.1953267,7.86738938 L21.1953267,7.86738938 Z" id="Shape"></path>
                <path d="M66.6406308,17.4126679 L66.3459389,12.8702015 L66.3459389,6.52471209 L73.7415721,6.52471209 L73.7415721,26.4738484 L66.5109947,26.4738484 L58.1002329,15.612524 L58.3956332,20.1564299 L58.3956332,26.4738484 L51,26.4738484 L51,6.52471209 L58.2312858,6.52471209 L66.6406308,17.4126679 L66.6406308,17.4126679 Z M85.8480252,11.1787428 L87.3200679,11.1787428 C91.4429209,11.1787428 93.0467249,12.2871881 93.0467249,16.4445777 C93.0467249,20.2118522 91.0837652,21.8183781 87.4844153,21.8183781 L85.8473168,21.8183781 L85.8473168,11.1787428 L85.8480252,11.1787428 Z M88.2678991,26.4738484 C95.8278797,26.4738484 100.768219,23.5918906 100.768219,16.0832534 C100.768219,9.5175144 96.0559825,6.52471209 88.465541,6.52471209 L78.1258224,6.52471209 L78.1258224,26.4738484 L88.2678991,26.4738484 Z M116.0164,12.3159789 C115.884639,11.6228407 115.460311,11.2068138 114.902804,10.9577735 C114.346715,10.7101727 113.660281,10.5978887 112.907967,10.5978887 C111.206405,10.5978887 110.453382,11.0131958 110.453382,11.7351248 C110.453382,14.7257678 124,12.8702015 124,20.1290787 C124,24.7564779 119.452111,27 112.974556,27 C106.756982,27 102.70001,23.925144 102.537079,20.321977 L109.931295,20.321977 C110.094226,21.0424664 110.552557,21.5693378 111.207113,21.9025912 C111.829791,22.234405 112.647278,22.4013916 113.398884,22.4013916 C115.330674,22.4013916 116.605784,21.8745202 116.605784,20.9323417 C116.605784,17.9121881 103.060582,19.9894434 103.060582,12.3714012 C103.060582,8.131238 107.378952,6 113.267123,6 C119.812683,6 122.790063,8.82581574 123.346861,12.3159789 L116.0164,12.3159789 L116.0164,12.3159789 Z" id="Shape"></path>
            </g>
            <g id="sun" transform="translate(3.000000, 77.000000)" fill="#000000" fill-opacity="0.85" fill-rule="nonzero">
                <path d="M57.5264241,56.0996492 C58.303308,57.7045032 58.2601478,57.838241 56.3610982,58.5515094 C55.4115734,58.9081436 53.8578056,59.3985157 52.9082808,59.6214121 C51.2681925,60.0226256 51.2250323,60.0672048 51.354513,60.6467354 C51.6134743,61.7166381 52.3903582,62.7419614 53.2535626,63.1877542 C54.0304465,63.5889677 55.4115734,63.5889677 57.3969434,63.2769127 C58.2601478,63.1431749 57.8717058,63.9010226 56.8358606,64.4359739 C55.3684132,65.1492423 51.958756,65.1938216 50.7071097,64.5251325 C48.0311762,63.0540163 47.1679719,59.3093571 48.8943806,56.4562834 C50.7502699,53.3357341 56.0589767,53.157417 57.5264241,56.0996492 Z M51.8292754,55.5646979 C51.3113528,56.1888078 50.6639495,58.7298265 51.0523915,58.7298265 C51.1387119,58.7298265 51.9155958,58.5960887 52.8651206,58.3731923 C55.2389326,57.8828203 55.1526121,57.9273996 54.8936508,57.035814 C54.4188884,55.3418015 52.6924797,54.5393746 51.8292754,55.5646979 Z" id="Combined-Shape"></path>
                <path d="M64.1644016,64.826087 C63.8262041,64.4782609 64.0375775,64.0434783 64.5448738,64.0434783 C65.5594663,64.0434783 65.601741,63.7826087 65.5594663,57.2173913 L65.5171916,51.0434783 L64.8407966,50.9130435 C64.4180497,50.826087 64.1221269,50.6086957 64.0798522,50.3913043 C63.9953028,50 64.375775,50 69.3641882,50 L74.7330737,50 L74.9021724,51.2173913 C75.1135459,53.0434783 74.9867218,53.8695652 74.4794256,53.8695652 C74.1835027,53.8695652 73.9721293,53.5652174 73.7184812,52.9130435 C73.2111849,51.4347826 72.7461633,51.173913 70.6324289,51.173913 L68.8146173,51.173913 L68.8146173,54.1304348 L68.8146173,57.0869565 L70.5901542,57 C72.3234164,56.9130435 72.3656911,56.9130435 72.7038886,56.173913 C72.8729874,55.7391304 73.1689102,55.3913043 73.338009,55.3913043 C73.5493824,55.3913043 73.6339318,55.9565217 73.6339318,57.7391304 C73.6339318,59.6086957 73.5493824,60.0869565 73.2957343,60.0869565 C73.1266355,60.0869565 72.9152621,59.7826087 72.8307127,59.3913043 C72.6193393,58.4347826 72.112043,58.2173913 70.3365061,58.2173913 L68.8146173,58.2173913 L68.8991667,60.9565217 L68.9837161,63.6956522 L69.7446604,63.9130435 C70.209682,64.0434783 70.5056048,64.3043478 70.5056048,64.5652174 C70.5056048,64.9565217 70.2519567,65 67.4618273,65 C65.6862904,65 64.2489509,64.9130435 64.1644016,64.826087 Z" id="XMLID_4_"></path>
                <path d="M76,64.516 C76,64.208 76.1791045,64.032 76.6716418,63.988 L77.3432836,63.9 L77.3432836,59.852 L77.3432836,55.804 L76.6716418,55.716 C76.2238806,55.672 76,55.496 76,55.232 C76,54.792 76.9850746,54.484 79.5373134,54.132 L80.5671642,54 L80.6119403,58.972 L80.6567164,63.944 L81.3283582,64.032 C81.7761194,64.076 82,64.252 82,64.56 C82,65 81.8208955,65 79,65 C76.1791045,65 76,64.956 76,64.516 Z" id="XMLID_5_"></path>
                <path d="M83,64.517794 C83,64.2065884 83.1750842,64.0287566 83.4377104,64.0287566 C84.3131313,64.0287566 84.4444444,63.5841771 84.4444444,59.9386253 C84.4444444,57.9824756 84.4006734,56.2486156 84.3131313,56.0263258 C84.2255892,55.8040361 83.9191919,55.6262043 83.6127946,55.6262043 C83.2188552,55.6262043 83.043771,55.4928305 83.043771,55.1816248 C83.043771,54.8259612 83.3939394,54.6481294 84.9259259,54.3369238 C86.9393939,53.8923443 87.5084175,53.9368022 87.5084175,54.6036715 C87.5084175,54.8704192 87.6397306,54.9593351 87.9023569,54.8259612 C90.0909091,53.8923443 91.1851852,53.7589704 92.7171717,54.3813817 C94.2491582,55.003793 94.5555556,55.9818679 94.5555556,60.1164571 C94.5555556,63.5841771 94.6868687,64.0732146 95.5622896,64.0732146 C95.8249158,64.0732146 96,64.2510464 96,64.562252 C96,65.0068315 95.8686869,65.0512894 93.1111111,64.9623735 C90.6161616,64.9179156 90.2222222,64.8289997 90.1346801,64.4733361 C90.0909091,64.2065884 90.2659933,64.0287566 90.7037037,63.9842987 L91.3602694,63.8953828 L91.4478114,60.7833264 C91.4915825,59.0494664 91.4478114,57.4045222 91.4040404,57.1377746 C91.1851852,56.1596997 90.4410774,55.6262043 89.3030303,55.6262043 C87.5084175,55.6262043 87.4646465,55.7151202 87.5521886,60.0719992 L87.5959596,63.8953828 L88.2525253,63.9842987 C88.7340067,64.0287566 88.9090909,64.1621305 88.8215488,64.4733361 C88.7777778,64.8289997 88.3400673,64.8734576 85.8451178,64.9623735 C83.1313131,65.0068315 83,65.0068315 83,64.517794 Z" id="XMLID_6_"></path>
                <path d="M102.683345,54 C103.793373,54 105.347413,54.6643502 105.702622,55.2844103 C105.880226,55.5944404 106.057831,57.3217508 106.146633,59.3590912 C106.279836,63.0794521 106.546243,64.0095423 107.345464,64.0095423 C107.922678,64.0095423 108.233486,64.4967324 107.789475,64.7624725 C107.167859,65.1610825 104.414989,65.0282125 103.926577,64.5853124 C103.526966,64.2309923 103.438164,64.2309923 102.638944,64.5853124 C102.10613,64.8510525 101.173706,64.9839225 100.108079,64.9839225 C98.5540396,64.9839225 98.3764351,64.8953425 97.7104181,64.2752823 C97.1776045,63.7438022 97,63.3451921 97,62.636552 C97,60.9092416 98.8648475,59.4476712 101.839723,58.7833211 L103.216158,58.473291 L103.082955,57.6317808 C102.816548,56.1259205 102.416938,55.6830204 101.173706,55.6830204 C100.196881,55.6830204 99.9748758,55.8158904 99.2644577,56.5245306 C98.8204464,57.0117207 98.4652373,57.4989108 98.4652373,57.5874908 C98.4652373,58.0746809 97.9768249,57.7646509 97.6216158,57.1003007 C97.2664068,56.3916605 97.2664068,56.3916605 98.3764351,55.5501504 C99.5752656,54.6643502 101.395712,54 102.683345,54 Z M102.638944,59.7134113 C101.839723,59.7134113 100.729695,60.2891814 100.507689,60.8206616 C100.241283,61.5293017 100.374486,62.680842 100.774096,63.1237421 C101.173706,63.5223522 102.150531,63.6552222 102.860949,63.3894821 C103.171757,63.2566121 103.26056,62.858002 103.26056,61.4850117 L103.260277,61.1155318 C103.256881,59.7511495 103.212743,59.7134113 102.638944,59.7134113 Z" id="Combined-Shape"></path>
                <path d="M109.173913,64.8550583 C108.826087,64.5000252 109.043478,64.1006129 109.652174,64.0118546 L110.304348,63.9230963 L110.304348,59.8402152 L110.304348,55.7573342 L109.652174,55.6685759 C109.217391,55.6241967 109,55.4466802 109,55.1804053 C109,54.7366139 109.956522,54.4259599 112.478261,54.0709268 C113.434783,53.9377893 113.478261,53.9377893 113.478261,54.5590973 L113.478261,55.1804053 L114.347826,54.6478556 C115.043478,54.2484433 115.608696,54.1153059 116.869565,54.1153059 C119.956522,54.1153059 120.521739,55.0472679 120.695652,60.3283858 C120.826087,63.9230963 120.826087,63.9230963 121.434783,64.0562338 C121.73913,64.1449921 122,64.3668878 122,64.5444043 C122,64.8106792 121.478261,64.8994375 119.086957,64.8994375 C116.652174,64.8994375 116.173913,64.8550583 116.173913,64.5444043 C116.173913,64.3668878 116.391304,64.1449921 116.695652,64.1006129 C117.608696,63.9674755 117.782609,63.2574092 117.652174,60.062111 C117.521739,56.4674004 117.217391,55.8460924 115.565217,55.712955 C115,55.6685759 114.304348,55.7573342 114,55.9348507 C113.478261,56.2455047 113.434783,56.2455047 113.521739,60.062111 L113.565217,63.9230963 L114.217391,64.0118546 C114.652174,64.0562338 114.869565,64.2337503 114.869565,64.5444043 C114.869565,64.9881958 114.695652,64.9881958 112.086957,64.9881958 C110.608696,65.0325749 109.26087,64.9438166 109.173913,64.8550583 Z" id="XMLID_9_"></path>
                <path d="M124.704928,64.457771 C124.115885,64.1461967 123.300287,63.4785376 122.892488,62.9889209 C122.258134,62.1877299 122.122201,61.8761556 122.031579,60.3182843 C121.940957,58.8494342 122.031579,58.3598175 122.484689,57.4696053 C123.798708,54.7544581 127.4689,53.3301186 130.685981,54.309352 C131.54689,54.5764157 131.637512,54.6654369 131.592201,55.2885854 C131.54689,55.6891809 131.320335,56.1787976 131.048469,56.4458613 L130.550048,56.935478 L129.825072,56.2678188 C129.326651,55.7782021 128.782919,55.5556491 128.012632,55.4666278 C127.0611,55.3776066 126.834545,55.4221172 126.290813,55.9562445 C124.750239,57.4696053 124.840861,60.7633904 126.517368,62.4547935 C127.4689,63.4340269 128.465742,63.65658 130.550048,63.4785376 C131.818756,63.3450057 132,63.3895163 132,63.7901118 C132,64.5022816 130.323493,64.9918983 127.876699,64.9918983 C126.15488,65.0364089 125.565837,64.9028771 124.704928,64.457771 Z" id="XMLID_10_"></path>
                <path d="M133,64.5116048 C133,64.2008078 133.222222,64.0232095 133.711111,63.9344104 L134.422222,63.8012117 L134.377778,59.8052506 L134.333333,55.8092895 L133.666667,55.7204904 C133.222222,55.6760908 133,55.4984925 133,55.2320951 C133,54.8768986 133.4,54.7436999 134.822222,54.3885034 C137.844444,53.7225098 137.533333,53.2341146 137.622222,58.9616588 L137.666667,63.9344104 L138.333333,64.0232095 C138.777778,64.0676091 139,64.2452074 139,64.5560043 C139,65 138.822222,65 136.022222,65 C133.222222,64.9556004 133,64.9112009 133,64.5116048 Z" id="XMLID_11_"></path>
                <path d="M148.61159,54.3295715 C149.998423,54.9051268 150.266842,55.7463231 150.401052,59.819484 C150.490525,61.7675175 150.624734,63.538457 150.714207,63.7155509 C150.803681,63.8926449 151.116836,64.0254654 151.340519,64.0254654 C151.922094,64.0254654 152.23525,64.5124737 151.787885,64.7781147 C151.206309,65.1323026 148.61159,65.0437556 148.030015,64.6452942 C147.537912,64.3353798 147.448439,64.3353798 146.777391,64.6452942 C146.330026,64.8666616 145.390558,64.9994821 144.272144,64.9994821 C142.751102,64.9109351 142.437946,64.8223882 141.901107,64.3353798 C139.709017,62.3430728 141.677425,59.64239 146.061606,58.6683733 L147.358966,58.4027324 L147.224757,57.4729891 C147.04581,56.189058 146.464235,55.6135026 145.301085,55.6135026 C144.093198,55.6135026 143.601096,55.8791435 142.930048,56.9417073 C142.303736,57.9599975 142.169527,57.9599975 141.722161,57.1630747 C141.409005,56.5432459 141.409005,56.4989724 142.393209,55.6577761 C144.093198,54.1524775 146.822128,53.5769222 148.61159,54.3295715 Z M147.31423,59.64239 L146.598445,59.64239 C145.480031,59.64239 144.406354,60.6606803 144.406354,61.723244 C144.406354,62.9629017 144.987929,63.4941835 146.195816,63.4056365 L147.18002,63.3170896 L147.224757,61.5018765 L147.31423,59.64239 Z" id="Combined-Shape"></path>
                <path d="M152.168666,64.8614882 C151.815252,64.5222051 152.036136,64.1405115 152.654611,64.0556907 L153.317262,63.9708699 L153.317262,57.2276169 L153.317262,50.4843639 L152.654611,50.3995431 C152.168666,50.3571327 151.991959,50.2299015 152.080313,49.9330287 C152.168666,49.5513352 152.742964,49.3816936 155.305217,49.1272312 L156.542167,49 L156.542167,56.2521778 C156.542167,63.8012283 156.586343,64.0556907 157.558232,64.0556907 C157.823293,64.0556907 158,64.2253323 158,64.5222051 C158,64.946309 157.823293,64.9887194 155.172687,64.9887194 C153.582323,65.0311298 152.25702,64.946309 152.168666,64.8614882 Z" id="XMLID_14_"></path>
                <path d="M21.0424217,64.6052828 C21.0424217,64.4298529 21.3393735,64.2105656 21.678747,64.1228507 C22.102964,64.0351357 22.3999158,63.8158484 22.4847592,63.4211312 C22.6968676,62.5439818 22.6544459,52.1936196 22.3999158,51.5357576 C22.230229,51.097183 22.0181206,50.9217531 21.5939037,50.9217531 C21.1696868,50.9217531 21,50.7901807 21,50.4393209 C21,49.9568888 21.1272651,49.9568888 24.1392051,50.0446037 C26.7269282,50.0884612 27.2784102,50.1761761 27.2784102,50.4831784 C27.2784102,50.7024657 26.9814583,50.8778956 26.5996631,50.9656106 L25.9209161,51.097183 L25.8784944,57.4126582 L25.8360727,63.7281335 L26.345133,63.8597059 C28.0420006,64.342138 29.7388682,63.6404185 30.4176153,62.2369796 C30.6721454,61.6668325 30.8842539,61.0966854 30.8842539,60.965113 C30.8842539,60.7896832 31.138784,60.7019682 31.4781575,60.7019682 C32.0720612,60.7019682 32.0720612,60.7458257 31.9023744,61.8422624 C31.8175311,62.4562669 31.6478443,63.4211312 31.5205792,63.9912783 L31.2660491,65 L26.1330245,65 C21.9756989,64.9122851 21.0424217,64.8684276 21.0424217,64.6052828 Z" id="XMLID_15_"></path>
                <path d="M33,64.5959184 C33,64.4163265 33.1777778,64.2367347 33.4444444,64.2367347 C34.3333333,64.2367347 34.4666667,63.7877551 34.4666667,60.1061224 C34.4666667,58.1306122 34.4222222,56.3795918 34.3333333,56.155102 C34.2444444,55.9306122 33.9333333,55.7510204 33.6222222,55.7510204 C33.2222222,55.7510204 33.0444444,55.6163265 33.0444444,55.3020408 C33.0444444,54.8081633 34.0222222,54.4938776 36.3333333,54.1795918 L37.5777778,54 L37.6222222,59.0734694 L37.6666667,64.1469388 L38.3333333,64.2367347 C38.6888889,64.2816327 39,64.4612245 39,64.6408163 C39,64.9102041 38.4666667,65 36.0222222,65 C33.4888889,64.955102 33,64.9102041 33,64.5959184 Z" id="XMLID_16_"></path>
                <path d="M40.0070265,63.7037037 C40.0524491,63.5343915 40.3249848,63.3650794 40.5975204,63.3227513 C40.8700561,63.2804233 41.1880143,63.1534392 41.3242821,63.026455 C41.4605499,62.8994709 41.6422404,60.5291005 41.687663,57.2698413 C41.8239308,52.1904762 41.8693534,51.6825397 42.3235795,50.8359788 C43.3682994,49.015873 45.1397811,48 47.1837984,48 C48.3193636,48 50,48.5079365 50,48.8465608 C50,49.1428571 49.0461253,50.4973545 48.8190122,50.4973545 C48.728167,50.4973545 48.2285183,50.2433862 47.7742923,49.9470899 C46.7295723,49.2275132 45.6848524,49.1851852 45.2306263,49.9047619 C45.0035133,50.2010582 44.8218228,51.1322751 44.7764002,52.2328042 L44.685555,54.0529101 L46.2299236,54.1375661 C47.5471792,54.1798942 47.7742923,54.2645503 47.7742923,54.6455026 C47.7742923,54.984127 47.5926018,55.1111111 46.9566854,55.1111111 C46.5024593,55.1111111 45.7756976,55.1957672 45.3668941,55.2380952 L44.5947098,55.3650794 L44.5947098,58.7513228 C44.5947098,62.8148148 44.7309776,63.3227513 45.957388,63.3227513 C46.5478819,63.3227513 46.8204175,63.4074074 46.8204175,63.6613757 C46.8204175,63.957672 46.2753462,64 43.3682994,64 C40.6883656,63.957672 39.9161813,63.9153439 40.0070265,63.7037037 Z" id="XMLID_17_"></path>
                <path d="M34.4004523,51.4278258 C33.8365517,50.6672814 33.874145,50.146909 34.475639,49.5064506 C35.077133,48.8659922 35.791407,48.8259636 36.4680877,49.4263933 C37.1447684,49.9867944 37.1823618,50.9074533 36.5432745,51.5479117 C35.8665938,52.1883701 34.9267595,52.1483415 34.4004523,51.4278258 Z" id="XMLID_18_"></path>
                <path d="M78.3269497,51.4064203 C77.3341024,50.0870162 78.7851869,48.4077746 80.2362713,49.2074134 C80.8472543,49.527269 81,49.8071426 81,50.5268176 C81,51.9661676 79.1670512,52.5259148 78.3269497,51.4064203 Z" id="XMLID_19_"></path>
                <path d="M135.396227,51.4366911 C134.838276,50.6669763 134.875473,50.1403293 135.470621,49.4921485 C136.40054,48.4793659 138,49.1275467 138,50.5454424 C137.962803,51.9228267 136.177359,52.5304963 135.396227,51.4366911 Z" id="XMLID_20_"></path>
                <path d="M76.0291262,44.2110541 C75.6796117,43.7613298 74.8640777,42.9845335 74.2038835,42.4939252 L73,41.5535928 L74.0485437,40.7767964 C74.631068,40.3270722 75.1747573,40 75.3300971,40 C75.7184466,40 77,43.5160257 77,44.7016623 C76.961165,45.1922705 76.7281553,45.1105025 76.0291262,44.2110541 Z" id="XMLID_21_"></path>
                <path d="M1.87424213,43.7970577 C1.37558932,43.6698107 0.786272366,43.2880699 0.559611999,42.9911604 C0.0156271187,42.2276787 -0.211033248,39.2585834 0.242287486,39.0040896 C0.876936513,38.6223487 1.14892895,38.7920113 1.55691761,39.9796494 C2.32756286,42.1428474 4.09551372,43.3729012 5.95412873,43.0759917 C7.13276264,42.8639134 7.67674752,42.1852631 7.67674752,40.870378 C7.67674752,39.5130773 7.13276264,38.8768426 4.86615897,37.7316201 C1.96490627,36.2470725 1.19426103,35.6108378 0.650276146,34.508031 C0.0609591921,33.2355616 0.196955412,31.7934296 0.96760066,30.7330384 C2.01023835,29.3757377 5.00215519,28.6546717 7.58608338,29.1636594 C9.62602668,29.5454003 9.80735497,29.7574785 9.94335119,31.6661826 L10.0793474,33.3203929 L9.44469838,33.3203929 C9.03670972,33.3203929 8.81004936,33.1931459 8.81004936,32.9810677 C8.81004936,32.3872486 7.85807582,30.8602853 7.31409093,30.4785445 C6.54344569,29.9695567 4.86615897,30.0119724 4.09551372,30.6057914 C3.59686092,30.9875323 3.4608647,31.2844418 3.4608647,32.0479234 C3.4608647,33.2779772 4.05018165,33.8293806 6.8607702,35.2715126 C10.3060078,37.0529698 11.1219851,38.0285297 10.9859889,40.149312 C10.8499927,41.6762753 10.2153436,42.6094196 8.76471728,43.3729012 C7.90340789,43.8394733 7.35942301,43.9243046 5.31947971,43.9667203 C3.91418543,44.0515516 2.37289494,43.9667203 1.87424213,43.7970577 Z" id="XMLID_22_"></path>
                <path d="M14.037169,43.6459175 C12.8676193,43.1158303 12.6077193,42.1440039 12.5644027,38.6984372 C12.521086,35.1203487 12.4344527,34.5902615 11.6547529,34.5902615 C11.3082196,34.5902615 11.0483197,34.4135658 11.005003,34.1926962 C10.9183697,33.7509568 11.9579695,33.3533915 14.037169,33.1325218 L15.3366687,33 L15.423302,37.0198278 C15.5099353,41.3046992 15.6398853,41.8347863 16.7228017,42.3206996 C17.4591849,42.674091 18.7153679,42.6299171 19.1918511,42.2765256 C19.5383844,42.0114821 19.581701,41.5697427 19.5383844,38.3008718 L19.4950677,34.5902615 L18.8453179,34.5902615 C18.3688346,34.5902615 18.195568,34.5019137 18.195568,34.1926962 C18.195568,33.7067829 19.2784844,33.3092175 21.2710506,33.1325218 L22.613867,33 L22.613867,37.2848714 C22.613867,39.6702637 22.6571836,41.7464385 22.743817,41.9673081 C22.8304503,42.1881778 23.1336669,42.3648735 23.4368835,42.3648735 C23.8267334,42.3648735 24,42.4973953 24,42.8066128 C24,43.1600043 23.6967834,43.3367 22.6571836,43.6459175 C20.8812007,44.1318308 20.4480342,44.1318308 20.1015009,43.5575697 C19.7982843,43.1158303 19.7982843,43.1158303 18.8020012,43.5575697 C17.6324515,44.0876568 15.1634021,44.1318308 14.037169,43.6459175 Z" id="XMLID_23_"></path>
                <path d="M26.2637501,42.6686801 C26.3070282,42.4616051 26.5666968,42.2545302 26.8263655,42.2131152 C27.5188152,42.1302852 27.6053714,41.6333053 27.6053714,38.3201061 C27.6053714,35.0897368 27.3889809,34.261437 26.6099749,34.385682 C26.2637501,34.427097 26.0473595,34.344267 26.0040814,34.0957771 C25.9175252,33.6816272 27.2158684,33.2260623 29.1201052,33.0604023 C30.2886141,32.9361573 30.3751703,32.9775723 30.3751703,33.4331372 C30.3751703,34.0129471 30.2886141,34.0129471 31.5004012,33.4745522 C32.6689101,32.9361573 35.0059279,32.8533273 36.0013244,33.3503072 C37.2563896,33.9715321 37.5160582,34.7584169 37.6458925,38.568596 L37.7757269,42.0060402 L38.3383423,42.1302852 C38.641289,42.2131152 38.9442358,42.4201901 38.9875139,42.6272651 C39.0740701,42.958585 38.7711233,43 36.1311587,43 C33.4911941,43 33.1882474,42.958585 33.2748036,42.6272651 C33.3180817,42.4201901 33.6210285,42.1717002 33.9239752,42.1302852 L34.4865906,42.0060402 L34.4865906,38.692841 L34.4865906,35.3796418 L33.837419,34.8412469 C33.0584131,34.220022 31.9331822,34.1371921 31.1541763,34.6341719 C30.634839,34.9654919 30.634839,35.1311518 30.634839,38.527181 L30.634839,42.0474552 L31.3272887,42.1717002 C31.7167917,42.2545302 32.0197385,42.4616051 32.0197385,42.6272651 C32.0197385,42.91717 31.5436793,42.958585 29.0768271,42.958585 C26.4368625,43.041415 26.1771938,43 26.2637501,42.6686801 Z" id="XMLID_24_"></path>
                <path d="M59.6934553,43.8637145 C56.5484676,43.2972959 53.0157416,41.6416108 50.9478045,39.8116431 L50,38.9838006 L51.5078708,39.4630778 C53.2311518,40.0294964 57.367026,40.1602084 59.219553,39.6809311 C60.2966036,39.4195072 60.3396856,39.4195072 62.0198846,40.5523443 C63.8293295,41.7723228 65.5095285,42.5565947 66.8450712,42.8180186 C67.3620555,42.9051599 67.0173993,42.6873066 65.9834307,42.2951707 C64.2601498,41.5980401 61.4598182,39.7245018 61.5890643,39.3323658 C61.6321463,39.2016539 62.5799509,38.7659473 63.7431655,38.3738113 C67.6205476,36.9795502 70.7224533,35.0624412 73.2642927,32.6224843 C74.8583276,31.0539405 75.9784602,29.7032501 76.4954444,28.6139836 C77.0985928,27.4375758 77.1847568,28.0911356 76.6246905,29.3982554 C75.4614759,32.1867777 72.8765545,35.1495825 69.9900589,37.1102622 C69.1715005,37.6766808 68.4821881,38.1995287 68.4821881,38.3302407 C68.4821881,38.4609527 69.0422544,39.2887952 69.7746488,40.1602084 C70.5070432,41.0316216 71.0671095,41.8158934 71.0671095,41.9030348 C71.0671095,42.1644587 69.2145825,42.9923013 68.6545162,42.9923013 C68.30986,42.9923013 68.0513678,43.0794426 68.0513678,43.1665839 C68.0513678,43.7330025 62.0629666,44.2558504 59.6934553,43.8637145 Z" id="XMLID_25_"></path>
                <path d="M80.5181082,39.2809419 C79.9024393,38.9011353 78.8470068,38.3314253 78.1873615,38.0940462 C77.5277162,37.856667 77,37.5243362 77,37.4293846 C77,37.1920054 78.6271251,35.1505448 78.9349595,35.0081173 C79.242794,34.8656898 80.5620846,36.6222955 81.3976353,38.3314253 C82.365115,40.2779343 82.233186,40.4203618 80.5181082,39.2809419 Z" id="XMLID_26_"></path>
                <path d="M52.0702065,38.7566293 C47.8846342,37.8753906 46.0782293,36.1569751 44.4480591,31.5304718 C43.9193552,30.0323659 43.8752965,29.8120563 44.2277658,30.1204898 C45.6817014,31.398286 48.5014554,32.059215 51.7617959,31.9270292 L53.8766113,31.8389053 L54.8459018,33.2488873 C55.3746056,34.0420021 56.5641893,35.540108 57.5334798,36.5975944 C59.2517673,38.5363196 59.2517673,38.5363196 58.5908875,38.7125674 C57.0047759,39.0650629 53.6122594,39.1091248 52.0702065,38.7566293 Z" id="XMLID_27_"></path>
                <path d="M58.6956474,36.586443 C57.2209731,35.0031028 54.8354705,31.7080434 55.0089616,31.5368715 C55.0523344,31.4940785 55.8764171,31.2373207 56.7872454,30.9805628 C60.1703217,30.0391173 64.4642264,27.9422613 67.2834567,25.8454054 C70.4496692,23.4917916 72.5315623,21.1809707 74.1797277,18.2282552 C74.9170649,16.9016729 75.090556,16.730501 74.9604377,17.3296027 C74.7869466,18.4422201 73.3122723,21.1809707 71.9677163,22.9782758 C70.3629236,25.1179247 67.2400839,27.8994683 64.9846997,29.2260507 L63.1196704,30.3386681 L63.770262,31.4084926 C64.1172442,32.0075943 64.8979541,33.2485907 65.5485457,34.1472432 L66.6762378,35.8161694 L65.3750546,36.3724781 C64.2473625,36.8432008 62.425706,37.4850955 60.6474222,37.9558183 C60.2570673,38.1269902 59.8667123,37.8274393 58.6956474,36.586443 Z" id="XMLID_28_"></path>
                <path d="M83.4349836,34.62247 C82.9217102,34.4367023 81.9346459,34.2044927 81.2634422,34.1116089 C80.552756,34.018725 80,33.8793992 80,33.8329573 C80,33.4614219 81.1449945,31 81.3424074,31 C81.8161982,31 84.501013,33.6936315 84.9353212,34.5760281 C85.1722167,35.1333312 84.777391,35.1333312 83.4349836,34.62247 Z" id="XMLID_29_"></path>
                <path d="M47.4554182,30.5305933 C46.7540358,30.3074875 45.8051067,29.7720336 45.3925288,29.4150643 C44.1135374,28.3887777 43.9072484,27.4963545 44.0310218,24.1497677 C44.1135374,22.543406 44.2373107,20.9816655 44.3610841,20.6246962 L44.6086308,20 L45.7225911,20.6246962 C46.4652313,21.0262866 47.3729026,21.2493924 48.3630896,21.3386347 L49.8896277,21.4724982 L50.5084945,23.658935 C50.8385569,24.8637062 51.581197,26.9162795 52.1588061,28.2102931 C53.0252196,30.173624 53.148993,30.6198356 52.8601885,30.7983202 C52.2413217,31.1552895 48.8169252,31.021426 47.4554182,30.5305933 Z" id="XMLID_30_"></path>
                <path d="M53.9430059,29.8966778 C52.7487427,27.6900333 51.0426523,23.1002127 51,22.0851562 C51,21.8203589 51.2985658,21.6438273 52.1089588,21.5555616 C53.3458743,21.37903 55.6917486,20.584638 57.7390571,19.6578473 C61.1512378,18.0690633 65.6297251,14.0529703 66.9945974,11.360864 C67.6770336,9.9927444 68.1888607,9.5514155 67.9329472,10.5223391 C67.3358155,12.8172494 65.0325935,16.2154819 62.7293715,18.2014619 C61.7483695,19.0399868 59.1892339,20.7611695 58.54945,21.0259669 C58.378841,21.0700998 58.9333203,22.4823522 59.9996268,24.6889967 C60.9379765,26.6308439 61.7483695,28.3078937 61.7910217,28.3961595 C61.9189785,28.7050897 55.7770531,31 54.7533989,31 C54.5827898,30.9117342 54.2415717,30.4262724 53.9430059,29.8966778 Z" id="XMLID_31_"></path>
                <path d="M81.1045879,28.3452674 C81.1981349,27.9348541 81.3384556,27.1961103 81.4320027,26.7446557 C81.5723233,26.0059119 81.6658704,25.9238292 82.1336058,26.0469532 C83.1158501,26.2932011 86.904507,28.0169368 86.9980541,28.2631847 C87.0448276,28.42735 86.2496774,28.550474 84.4722829,28.6325567 C83.0223031,28.7146393 81.6658704,28.8377633 81.3852291,28.9198459 C80.9642672,29.0840112 80.9174937,29.0429699 81.1045879,28.3452674 Z" id="XMLID_32_"></path>
                <path d="M82.1651782,23.7656299 C81.9193228,23.0595917 81.9602987,21.1491354 82.2061541,21.0245405 C82.5749371,20.8999455 85.1154423,21.2737304 86.1398395,21.6059837 C87.3691162,22.0213003 87.2871644,22.3120219 85.8530083,22.6442751 C85.1564182,22.8104018 84.091045,23.1841867 83.4764067,23.4749083 C82.2061541,24.1394148 82.2881059,24.0978832 82.1651782,23.7656299 Z" id="XMLID_33_"></path>
                <path d="M47.6602095,20.8309859 C46.5017312,20.5774648 45,19.7323944 45,19.3521127 C45,18.7183099 46.2871982,16.0985915 47.3169567,14.5352113 C48.6041548,12.6338028 50.320419,10.943662 50.7494851,11.1126761 C50.9211115,11.1971831 51.0498313,11.1971831 50.9640181,11.1126761 C50.7494851,10.9014085 51.6505238,10.0140845 52.5944691,9.46478873 L53.4096946,9 L54.3536399,11.7887324 C54.8685192,13.3098592 55.7266513,15.5492958 56.2415305,16.7323944 C57.0996626,18.7183099 57.1425692,18.9295775 56.7993164,19.1830986 C56.2844371,19.5633803 52.4657493,20.7464789 51.4359908,20.8732394 C50.6636719,20.9577465 50.6207653,20.915493 50.3633256,19.8169014 C50.0200728,18.3802817 49.9771662,14.1549296 50.2775124,13.0985915 C50.4062322,12.6760563 50.4491388,12.2535211 50.4062322,12.2112676 C50.3633256,12.1690141 50.1487926,12.7183099 49.9342596,13.3943662 C49.5481001,14.7464789 49.4193803,19.1830986 49.7197266,20.4084507 C49.8484464,21 49.8484464,21 48.9903143,21 C48.5183416,20.9577465 47.9176491,20.8732394 47.6602095,20.8309859 Z" id="XMLID_34_"></path>
                <path d="M80.471633,17.7903181 C80.1464349,17.1108759 79.9606075,16.5069273 80.0070643,16.4691805 C80.0535212,16.4314337 81.1220291,16.2804466 82.3763645,16.1294594 C84.5133803,15.9029787 86,15.9784723 86,16.3181934 C86,16.3936869 85.4889745,16.6956612 84.8385784,16.9598888 C84.1881822,17.2241163 83.1196743,17.7903181 82.4692782,18.2432796 C81.8188821,18.6584943 81.2149429,18.9982154 81.168486,18.9982154 C81.0755723,19.0359621 80.7503742,18.4697603 80.471633,17.7903181 Z" id="XMLID_35_"></path>
                <path d="M78.8143308,13.0109721 C78.4083032,12.4571165 78.0428785,11.942822 78.0022757,11.8636998 C77.9210702,11.6658942 80.0324134,10.7164275 81.250496,10.3999386 C81.7783318,10.2812552 82.4279758,10.1230108 82.6309896,10.0438885 C83.2806336,9.84608297 83.0776199,10.3208163 81.9813455,11.3889664 C81.412907,11.942822 80.7226602,12.7736054 80.4384409,13.2087777 C80.1542216,13.64395 79.8293996,14 79.7481941,14 C79.6669886,14 79.2609611,13.5648277 78.8143308,13.0109721 Z" id="XMLID_36_"></path>
                <path d="M75.3103086,9.11136225 C74.6097343,8.60356925 74.0025699,8.13809234 74.0025699,8.01114409 C73.90916,7.75724759 76.3845226,5.97997209 77.7856712,5.34523084 C78.4395405,5.04901826 79,4.92207001 79,5.04901826 C79,5.17596651 78.7197703,5.76839167 78.3461306,6.31850076 C77.972491,6.91092592 77.4587365,7.968828 77.1318018,8.68820142 L76.6180473,10 L75.3103086,9.11136225 Z" id="XMLID_37_"></path>
                <path d="M70.3056377,7.300499 C69.559559,6.92853416 69,6.51007371 69,6.37058689 C69,5.71964842 72.2640944,2 72.8236534,2 C73.1034329,2 73.056803,2.18598242 72.6371337,3.53435497 C72.450614,4.18529345 72.2174644,5.44067479 72.1242046,6.37058689 C72.0309448,7.300499 71.891055,8.04442868 71.7977952,7.99793308 C71.7045353,7.95143747 71.0050865,7.62596824 70.3056377,7.300499 Z" id="XMLID_38_"></path>
                <path d="M54.4828893,7.17704596 C54.060836,6.07977391 53.826362,2.19360206 54.1546256,2.01072338 C54.2953101,1.91928404 54.7642582,2.4222004 55.1863114,3.1537151 C55.6083647,3.8852298 56.4055765,4.93678219 56.9683142,5.57685755 L58,6.71984927 L56.4055765,7.35992464 L54.811153,8 L54.4828893,7.17704596 Z" id="XMLID_39_"></path>
                <path d="M59.0413263,4.784689 C58.7986568,4.14673046 59.6884452,0 60.0524496,0 C60.1333394,0 60.4164539,0.717703349 60.6995684,1.55502392 C60.9826829,2.3923445 61.3871322,3.42902711 61.6298018,3.8277512 C61.8724713,4.22647528 62.034251,4.58532695 61.9938061,4.62519936 C61.9533612,4.66507177 61.3062423,4.784689 60.5377887,4.90430622 C59.4053307,5.06379585 59.1222162,5.02392344 59.0413263,4.784689 Z" id="XMLID_40_"></path>
                <path d="M66.089459,5.75767937 C65.5613509,5.61838068 65.0738664,5.47908198 65.0332427,5.43264909 C64.7082531,5.0611859 66.8613094,0 67.3487938,0 C67.4300412,0 67.5519123,0.928657963 67.5519123,2.08948042 C67.5519123,3.25030287 67.6737834,4.55042402 67.7956545,5.014753 C67.9175256,5.47908198 67.998773,5.89697807 67.998773,5.94341097 C68.0393967,6.08270966 67.0644279,5.94341097 66.089459,5.75767937 Z" id="XMLID_41_"></path>
            </g>
            <g id="charter" transform="translate(408.000000, 93.000000)">
                <g id="g1845-Clipped" transform="translate(66.500000, 21.000000) scale(-1, 1) rotate(-180.000000) translate(-66.500000, -21.000000) ">
                    <mask id="mask-2" fill="white">
                        <use xlink:href="#path-1"></use>
                    </mask>
                    <g id="path1847"></g>
                    <g id="g1845" mask="url(#mask-2)" fill-opacity="0.85">
                        <g transform="translate(0.001018, 0.000113)">
                            <g id="g1851" stroke-width="1" fill="none" fill-rule="evenodd" transform="translate(25.312097, 10.678151)">
                                <path d="M10.4263148,23.1760101 C7.81294817,23.1760101 5.60459676,22.3008448 3.89855479,20.6446058 L3.89855479,31.3211693 L0,31.3211693 L0,0 L3.89855479,0 L3.89855479,12.972172 C3.89855479,16.7154309 6.52436607,19.4316176 10.1412203,19.4316176 C13.6675683,19.4316176 15.7741003,17.13941 15.7741003,13.2975249 L15.7741003,0 L19.6715237,0 L19.6715237,13.6648223 C19.6715237,19.3533969 15.956244,23.1760101 10.4263148,23.1760101" id="path1853" fill="#000000" fill-rule="nonzero"></path>
                            </g>
                            <g id="g1855" stroke-width="1" fill="none" fill-rule="evenodd" transform="translate(46.642373, 10.188988)">
                                <path d="M4.01960684,7.67583471 C4.01960684,10.1142811 6.21664498,11.5687333 9.89685355,11.5687333 C12.3993501,11.5687333 14.4051939,11.2037032 15.9754766,10.8318713 L15.9754766,9.22551216 C15.9754766,6.12275635 13.0125297,3.78406975 9.08342903,3.78406975 C6.56622519,3.78406975 4.01960684,5.09228319 4.01960684,7.5953467 L4.01960684,7.67583471 Z M10.1808168,23.5013631 C6.90562346,23.5013631 4.4200968,22.5502443 2.41990966,21.6206645 L1.58951523,21.2329618 L3.07155434,17.6824206 L3.98792967,18.1506114 C6.0740977,19.2196281 8.00414253,19.7172933 10.0597647,19.7172933 C12.6708687,19.7172933 15.7639183,18.8183217 15.9223042,14.6420146 C14.3644661,14.9957084 12.5226648,15.2734487 10.0179056,15.2734487 C3.93136329,15.2734487 0,12.2421118 0,7.55453588 L0,7.47291425 C0,2.61869416 4.6169478,0 8.96124565,0 C12.1934485,0 14.4402651,1.20051823 15.9358801,2.4826581 L15.9358801,0.488596183 L19.7937071,0.488596183 L19.7937071,14.3982834 C19.7937071,20.0993279 16.1994794,23.5013631 10.1808168,23.5013631" id="path1857" fill="#000000" fill-rule="nonzero"></path>
                            </g>
                            <g id="g1859" stroke-width="1" fill="none" fill-rule="evenodd" transform="translate(68.689911, 10.677017)">
                                <path d="M3.89855479,19.1550109 L3.89855479,22.687414 L0,22.687414 L0,0 L3.89855479,0 L3.89855479,9.47037707 C3.89855479,15.9865044 7.93173757,18.9033442 11.9298492,18.9033442 L13.0849346,18.9033442 L13.0849346,23.0070987 L12.1696906,23.0070987 C9.02573132,23.0070987 6.00734938,21.6807471 3.89855479,19.1550109" id="path1861" fill="#000000" fill-rule="nonzero"></path>
                            </g>
                            <g id="g1863" stroke-width="1" fill="none" fill-rule="evenodd" transform="translate(83.039443, 10.310173)">
                                <path d="M9.72149778,3.78520338 C7.51314637,3.78520338 6.52889138,4.73292127 6.52889138,6.86188561 L6.52889138,19.2695079 L13.8033276,19.2695079 L13.8033276,23.3743961 L6.52889138,23.3743961 L6.52889138,29.6944047 L2.63033659,29.6944047 L2.63033659,23.3743961 L0,23.3743961 L0,19.2695079 L2.63033659,19.2695079 L2.63033659,6.65896515 C2.63033659,2.55180977 5.22107672,0 9.39567544,0 C10.7781577,0 11.9422938,0.253933979 13.1686529,0.820750897 L13.7241347,1.07808578 L13.7241347,5.0390024 L12.3801176,4.43477557 C11.3257203,3.96091662 10.6050646,3.78520338 9.72149778,3.78520338" id="path1865" fill="#000000" fill-rule="nonzero"></path>
                            </g>
                            <g id="g1867" stroke-width="1" fill="none" fill-rule="evenodd" transform="translate(96.591616, 10.188421)">
                                <path d="M10.7102781,19.9213474 C14.702733,19.9213474 16.5750802,16.9024805 17.0785209,13.764582 L4.18025536,13.764582 C4.8590519,17.380874 7.46563061,19.9213474 10.7102781,19.9213474 M10.7906023,23.66574 C4.7402625,23.66574 0,18.486167 0,11.8736808 L0,11.7920592 C0,5.07074415 4.77872764,0 11.1152933,0 C15.8747884,0 18.574136,2.25366407 20.3933107,4.21598424 L21.0574,4.93470809 L18.2471823,7.41736619 L17.6159015,6.73945316 C15.7367664,4.7238522 13.6981142,3.78520338 11.1978802,3.78520338 C8.21570079,3.78520338 4.88733509,5.75885989 4.1451842,10.0621339 L21.1671388,10.0621339 L21.2089979,10.9021566 L21.2565136,11.7512483 L21.2565136,11.8317363 C21.2565136,18.7990499 16.9540749,23.66574 10.7906023,23.66574" id="path1869" fill="#000000" fill-rule="nonzero"></path>
                            </g>
                            <g id="g1871" stroke-width="1" fill="none" fill-rule="evenodd" transform="translate(119.913708, 10.677810)">
                                <path d="M12.170822,23.0127669 C9.00649875,23.1386002 6.00508672,21.6796135 3.89855479,19.1538773 L3.89855479,22.687414 L0,22.687414 L0,0 L3.89855479,0 L3.89855479,9.47037707 C3.89855479,15.9853707 7.93286889,18.9022106 11.9287179,18.9022106 L13.0849346,18.9022106 L13.0849346,22.9764906 L12.170822,23.0127669 Z" id="path1873" fill="#000000" fill-rule="nonzero"></path>
                            </g>
                            <g id="g1875" stroke-width="1" fill="none" fill-rule="evenodd" transform="translate(0.000000, 10.167108)">
                                <path d="M20.5426459,6.41863478 C18.4757105,4.69664498 16.4393209,3.93030851 13.9368243,3.93030851 C8.35824806,3.93030851 3.98792967,9.11101514 3.98792967,15.7269022 C3.98792967,22.4062728 8.2654792,27.4407406 13.9368243,27.4407406 C16.3329761,27.4407406 18.2913041,26.7310859 20.2880972,25.139464 L20.9533179,24.6077897 L23.8314152,27.4917542 L23.0360919,28.1617318 C21.4047176,29.5390969 18.6906627,31.3710492 13.9752894,31.3710492 C6.00734938,31.3710492 0,24.6089233 0,15.6430133 C0,6.72471592 5.95757096,0 13.859894,0 C18.6736928,0 21.4839105,2.04847634 23.1786392,3.59021836 L23.9196587,4.26359686 L21.2112605,6.97524899 L20.5426459,6.41863478 Z" id="path1877" fill="#000000" fill-rule="nonzero"></path>
                            </g>
                            <g id="g1879" stroke-width="1" fill="none" fill-rule="evenodd" transform="translate(2.328046, 0.000000)">
                                <path d="M0,3.03813868 L0,3.05514319 C0,4.7340549 1.25464227,6.11028638 3.0410085,6.11028638 C4.12708296,6.11028638 4.78438428,5.73051904 5.34778541,5.1897757 L4.6825648,4.4223056 C4.2108012,4.86102189 3.70622911,5.15576669 3.03195788,5.15576669 C1.91194359,5.15576669 1.08607446,4.22845421 1.08607446,3.0721477 L1.08607446,3.05514319 C1.08607446,1.89883668 1.90289297,0.962455127 3.03195788,0.962455127 C3.75600752,0.962455127 4.21985182,1.24926449 4.72442392,1.7219898 L5.39077585,1.04634403 C4.77533366,0.40470728 4.10219375,0 2.99801805,0 C1.2806628,0 0,1.34108883 0,3.03813868" id="path1881" fill="#000000" fill-rule="nonzero"></path>
                            </g>
                            <g id="g1883" stroke-width="1" fill="none" fill-rule="evenodd" transform="translate(11.409439, 0.000000)">
                                <path d="M5.07852944,3.03813868 L5.07852944,3.05514319 C5.07852944,4.20238063 4.24474103,5.15576669 3.073817,5.15576669 C1.90289297,5.15576669 1.08607446,4.21938514 1.08607446,3.0721477 L1.08607446,3.05514319 C1.08607446,1.90677211 1.91986288,0.962455127 3.09078691,0.962455127 C4.26171094,0.962455127 5.07852944,1.88976761 5.07852944,3.03813868 M0,3.03813868 L0,3.05514319 C0,4.71705039 1.2806628,6.11028638 3.09078691,6.11028638 C4.90204234,6.11028638 6.16460391,4.7340549 6.16460391,3.0721477 L6.16460391,3.05514319 C6.16460391,1.39210235 4.88507243,0 3.073817,0 C1.26369289,0 0,1.37509784 0,3.03813868" id="path1885" fill="#000000" fill-rule="nonzero"></path>
                            </g>
                            <g id="g1887" stroke-width="1" fill="none" fill-rule="evenodd" transform="translate(21.863810, 0.101120)">
                                <polygon id="path1889" fill="#000000" fill-rule="nonzero" points="0 5.90736592 1.10304438 5.90736592 2.8973299 3.11409215 4.69161542 5.90736592 5.79465979 5.90736592 5.79465979 0 4.75836374 0 4.75836374 4.23638965 2.8973299 1.45105131 2.86339007 1.45105131 1.01932614 4.21938514 1.01932614 0 0 0"></polygon>
                            </g>
                            <g id="g1891" stroke-width="1" fill="none" fill-rule="evenodd" transform="translate(32.200411, 0.101120)">
                                <polygon id="path1893" fill="#000000" fill-rule="nonzero" points="0 5.90736592 1.10304438 5.90736592 2.8973299 3.11409215 4.69161542 5.90736592 5.79465979 5.90736592 5.79465979 0 4.75836374 0 4.75836374 4.23638965 2.8973299 1.45105131 2.86339007 1.45105131 1.01932614 4.21938514 1.01932614 0 0 0"></polygon>
                            </g>
                            <g id="g1895" stroke-width="1" fill="none" fill-rule="evenodd" transform="translate(42.444243, 0.008389)">
                                <path d="M0,2.59942239 L0,6.0003239 L1.03629605,6.0003239 L1.03629605,2.64136684 C1.03629605,1.54400929 1.59969718,0.961321493 2.52625446,0.961321493 C3.44489244,0.961321493 4.00942489,1.51000027 4.00942489,2.59942239 L4.00942489,6.0003239 L5.04458962,6.0003239 L5.04458962,2.64930228 C5.04458962,0.88650166 4.05128401,0 2.50928454,0 C0.977467017,0 0,0.88650166 0,2.59942239" id="path1897" fill="#000000" fill-rule="nonzero"></path>
                            </g>
                            <g id="g1899" stroke-width="1" fill="none" fill-rule="evenodd" transform="translate(51.938230, 0.101120)">
                                <polygon id="path1901" fill="#000000" fill-rule="nonzero" points="0 5.90736592 0.960497104 5.90736592 4.11803234 1.82288321 4.11803234 5.90736592 5.13735848 5.90736592 5.13735848 0 4.26963023 0 1.01932614 4.20238063 1.01932614 0 0 0"></polygon>
                            </g>
                            <polygon id="path1903" fill="#000000" fill-rule="nonzero" points="61.6846173 6.00814597 62.7209134 6.00814597 62.7209134 0.100780048 61.6846173 0.100780048"></polygon>
                            <g id="g1905" stroke-width="1" fill="none" fill-rule="evenodd" transform="translate(67.067926, 0.000000)">
                                <path d="M0,3.03813868 L0,3.05514319 C0,4.7340549 1.25464227,6.11028638 3.03987717,6.11028638 C4.12708296,6.11028638 4.78438428,5.73051904 5.34778541,5.1897757 L4.6825648,4.4223056 C4.2108012,4.86102189 3.70622911,5.15576669 3.03195788,5.15576669 C1.91194359,5.15576669 1.08720579,4.22845421 1.08720579,3.0721477 L1.08720579,3.05514319 C1.08720579,1.89883668 1.90402429,0.962455127 3.03195788,0.962455127 C3.75713885,0.962455127 4.21985182,1.24926449 4.72555524,1.7219898 L5.39077585,1.04634403 C4.77533366,0.40470728 4.10219375,0 2.99801805,0 C1.2806628,0 0,1.34108883 0,3.03813868" id="path1907" fill="#000000" fill-rule="nonzero"></path>
                            </g>
                            <g id="g1909" stroke-width="1" fill="none" fill-rule="evenodd" transform="translate(76.073746, 0.101574)">
                                <path d="M4.07617322,2.34548841 L3.05684708,4.70798132 L2.04657157,2.34548841 L4.07617322,2.34548841 Z M2.59413411,5.94931037 L3.55349989,5.94931037 L6.14763399,0 L5.05364024,0 L4.45516796,1.42611137 L1.66757683,1.42611137 L1.06118526,0 L0,0 L2.59413411,5.94931037 Z" id="path1911" fill="#000000" fill-rule="nonzero"></path>
                            </g>
                            <g id="g1913" stroke-width="1" fill="none" fill-rule="evenodd" transform="translate(85.087146, 0.101687)">
                                <polygon id="path1915" fill="#000000" fill-rule="nonzero" points="1.87008447 4.94491079 0 4.94491079 0 5.90736592 4.78438428 5.90736592 4.78438428 4.94491079 2.91429981 4.94491079 2.91429981 0 1.87008447 0"></polygon>
                            </g>
                            <polygon id="path1917" fill="#000000" fill-rule="nonzero" points="94.0507677 6.00814597 95.0870637 6.00814597 95.0870637 0.100780048 94.0507677 0.100780048"></polygon>
                            <g id="g1919" stroke-width="1" fill="none" fill-rule="evenodd" transform="translate(99.433737, 0.000000)">
                                <path d="M5.07852944,3.03813868 L5.07852944,3.05514319 C5.07852944,4.20238063 4.24474103,5.15576669 3.073817,5.15576669 C1.90289297,5.15576669 1.08607446,4.21938514 1.08607446,3.0721477 L1.08607446,3.05514319 C1.08607446,1.90677211 1.91986288,0.962455127 3.09078691,0.962455127 C4.26171094,0.962455127 5.07852944,1.88976761 5.07852944,3.03813868 M0,3.03813868 L0,3.05514319 C0,4.71705039 1.2806628,6.11028638 3.09078691,6.11028638 C4.90204234,6.11028638 6.16460391,4.7340549 6.16460391,3.0721477 L6.16460391,3.05514319 C6.16460391,1.39210235 4.88507243,0 3.073817,0 C1.26369289,0 0,1.37509784 0,3.03813868" id="path1921" fill="#000000" fill-rule="nonzero"></path>
                            </g>
                            <g id="g1923" stroke-width="1" fill="none" fill-rule="evenodd" transform="translate(109.887657, 0.101120)">
                                <polygon id="path1925" fill="#000000" fill-rule="nonzero" points="0 5.90736592 0.960497104 5.90736592 4.11916367 1.82288321 4.11916367 5.90736592 5.13735848 5.90736592 5.13735848 0 4.26963023 0 1.01932614 4.20238063 1.01932614 0 0 0"></polygon>
                            </g>
                            <g id="g1927" stroke-width="1" fill="none" fill-rule="evenodd" transform="translate(119.171557, 0.016551)">
                                <path d="M0,0.945450619 L0.623361489,1.68798078 C1.18789394,1.19825096 1.76034569,0.920510675 2.48439534,0.920510675 C3.12472674,0.920510675 3.52861068,1.22319091 3.52861068,1.66304084 L3.52861068,1.67891171 C3.52861068,2.10175713 3.29329454,2.32961753 2.19816946,2.58241788 C0.94352719,2.88623175 0.235316134,3.25806365 0.235316134,4.34635213 L0.235316134,4.36335664 C0.235316134,5.37682529 1.07815517,6.07627736 2.2490792,6.07627736 C3.10775682,6.07627736 3.78994735,5.81440795 4.38841963,5.3337472 L3.83180647,4.54927258 C3.30121384,4.94604443 2.77062121,5.15690032 2.23210929,5.15690032 C1.62571771,5.15690032 1.27161218,4.84401738 1.27161218,4.45631461 L1.27161218,4.4393101 C1.27161218,3.9835893 1.54086815,3.78066884 2.67785235,3.51086399 C3.92457533,3.20705012 4.56490673,2.75926476 4.56490673,1.78093876 L4.56490673,1.76393425 C4.56490673,0.658641259 3.69717849,0 2.45950613,0 C1.55783806,0 0.707079729,0.312882939 0,0.945450619" id="path1929" fill="#000000" fill-rule="nonzero"></path>
                            </g>
                        </g>
                    </g>
                </g>
            </g>
        </g>
    </g>
</svg>