<?xml version="1.0" encoding="UTF-8"?>
<svg width="326px" height="53px" viewBox="0 0 326 53" version="1.1" xmlns="http://www.w3.org/2000/svg" xmlns:xlink="http://www.w3.org/1999/xlink">
    <title>Group 13</title>
    <g id="Page-1" stroke="none" stroke-width="1" fill="none" fill-rule="evenodd">
        <g id="Group-65" transform="translate(-167.000000, -204.000000)">
            <g id="Group-13" transform="translate(167.000000, 204.000000)">
                <path d="M87.4437571,40.2957383 C90.4858473,37.4019533 95.4185397,37.4019533 98.4606299,40.2957383 C101.50272,43.1895232 101.50272,47.8817414 98.4606299,50.7755264 C95.4185397,53.6693113 90.4858473,53.6693113 87.4437571,50.7755264 C84.4016669,47.8817414 84.4016669,43.1895232 87.4437571,40.2957383" id="Fill-5" fill="#FAA61A"></path>
                <path d="M290.519534,40.8835112 C293.22075,37.697896 298.124344,37.1980676 301.47322,39.7675968 C304.822097,42.337126 305.34671,47.0024547 302.646325,50.1880698 C299.945108,53.373685 295.040683,53.8727225 291.691807,51.3031933 C288.34293,48.734455 287.818317,44.0691263 290.519534,40.8835112" id="Fill-7" fill="#6EBD4A"></path>
                <path d="M224.682682,5.87567261 C225.588907,1.87467283 229.734264,-0.668757741 233.939482,0.194078938 C238.1447,1.05691562 240.819312,4.99939118 239.912255,8.99960009 C239.00603,13.0005999 234.861504,15.5440304 230.655455,14.6811938 C226.449406,13.8183571 223.775625,9.87667239 224.682682,5.87567261" id="Fill-9" fill="#00BADE"></path>
                <path d="M63.4232996,52.9106319 L76.2468032,52.9106319 L92.9995001,22.8497501 L109.75386,52.9106319 L122.369514,52.9106319 L92.8955752,0.0276803701 L63.4232996,52.9106319 Z M22.2648747,20.5404163 C17.3978628,19.5597404 11.573079,18.7222114 11.573079,15.0731478 C11.573079,11.0096695 17.4726888,9.60350668 20.8631353,9.60350668 C26.0918059,9.60350668 31.8301242,11.4818175 36.4801408,14.6437066 L41.2997628,5.98607774 C35.8141899,2.35204059 30.0484354,0 21.3087654,0 C11.800051,0 0,3.29791838 0,15.4946803 C0,27.7665746 14.5278723,30.143923 21.3087654,31.1981497 C27.5692025,32.2515855 33.318329,33.2979035 33.318329,37.3684996 C33.318329,40.2433037 30.0625692,43.3181974 23.6524802,43.3181974 C17.4677004,43.3181974 9.22021882,40.2464672 5.20622274,37.1913452 C5.20622274,37.1913452 0.472234832,45.3451914 0.215332432,45.8054764 C5.22700773,49.5707976 12.638933,53 23.5161307,53 C36.2631455,53 44.8839254,47.7383571 44.8839254,37.0885324 C44.8847568,23.3432515 31.0361378,22.2977244 22.2648747,20.5404163 L22.2648747,20.5404163 Z M184.342853,17.6316049 C184.342853,7.89444154 176.045487,0.00158173543 165.809298,0.000790867716 L140.906394,0.000790867716 L140.906394,52.9106319 L152.480304,52.9106319 L152.480304,35.2608371 L160.881594,35.2608371 L170.711229,52.9106319 L183.32522,52.9106319 L172.769774,33.9709319 C179.765168,31.274073 184.342853,24.811102 184.342853,17.6316049 L184.342853,17.6316049 Z M164.858178,25.6589122 L164.856515,25.6581213 L152.480304,25.6581213 L152.480304,9.60271464 L164.35435,9.60271464 C169.019331,9.60034321 172.803861,13.194837 172.806357,17.6323957 C172.80885,21.8880549 169.323623,25.4074163 164.858178,25.6589122 Z M232.250578,30.1241513 L215.497049,0.0632694173 L202.881396,0.0632694173 L232.354503,52.9454301 L261.825947,0.0632694173 L249.001612,0.0632694173 L232.250578,30.1241513 Z M296.526062,0.0284712378 L267.052955,52.9106319 L279.878952,52.9106319 L296.629155,22.8497501 L313.383515,52.9106319 L326,52.9106319 L296.526062,0.0284712378 Z" id="Fill-11" fill="#303D47"></path>
            </g>
        </g>
    </g>
</svg>