<?xml version="1.0" encoding="UTF-8"?>
<svg width="128px" height="102px" viewBox="0 0 128 102" version="1.1" xmlns="http://www.w3.org/2000/svg" xmlns:xlink="http://www.w3.org/1999/xlink">
    <title>Group 23</title>
    <g id="Page-1" stroke="none" stroke-width="1" fill="none" fill-rule="evenodd" fill-opacity="0.85">
        <g id="Home" transform="translate(-162.000000, -6523.000000)" fill="#000000">
            <g id="Group-23" transform="translate(162.000000, 6523.000000)">
                <g id="Group" transform="translate(5.000000, 5.000000)">
                    <path d="M43.0630455,92.3877217 C44.3588919,91.3106002 45.8327229,90.5118427 47.3424498,89.8869501 C47.9036243,89.6551303 48.4803538,89.4431292 49.0681512,89.2539498 C47.5267161,88.430569 46.3992818,87.1963986 45.2434298,85.8529245 C44.8135749,85.4667583 41.6050686,81.5495434 41.6415629,81.5474415 C43.6382793,81.100918 45.3795356,80.7405763 47.4291985,81.1027197 C48.7121822,81.3246302 49.8016266,81.8405194 50.9072241,82.5380809 C51.8153935,83.1098231 52.7325369,83.8019795 53.7750173,84.5202607 C54.4887499,85.0121271 55.2362846,85.5003902 56.0514235,85.7580345 C56.8650667,86.0159791 57.7651595,86.023186 58.4914557,85.5670534 C58.5820932,85.5099993 58.6808072,85.4442369 58.7858031,85.4745657 C58.875244,85.5003902 58.9464378,85.5916767 58.9996836,85.6862664 C60.0104558,87.4285187 58.9509248,90.874887 57.9733564,91.9327902 C55.3556389,94.8872921 52.7340326,96.2211571 48.9565743,95.8734273 C45.6433713,95.522995 43.5401635,95.407085 40.4456271,95.998646 C40.1536727,96.056601 41.2829018,94.2353739 41.3678557,94.1179625 C41.8922368,93.4834608 42.4423434,92.9042115 43.0630455,92.3877217" id="Fill-192"></path>
                    <path d="M27.7614679,86.0472087 C29.1470544,85.4880785 30.6229792,85.2277316 32.0863405,85.1295385 C32.6298661,85.0938046 33.1820666,85.0796912 33.7381559,85.0886998 C32.5888848,83.9085806 31.8895106,82.4867322 31.1850512,80.9546793 C30.9026691,80.4901388 28.9678734,76.0513293 28.9956928,76.0558301 C30.8673713,76.2795457 32.4901708,76.5008556 34.2060007,77.4458518 C35.2804884,78.0329085 36.1120796,78.8157509 36.9101678,79.7586451 C37.5661677,80.5321786 38.198536,81.4111122 38.9290201,82.3464992 C39.4294705,82.9873069 39.9574411,83.6329192 40.5957921,84.0959583 C41.2326474,84.5589974 42.0005232,84.8268514 42.7274177,84.6412754 C42.8183542,84.6181535 42.9179657,84.5896265 42.9999283,84.6463803 C43.0705238,84.6950264 43.109112,84.794721 43.1324445,84.8923135 C43.5802474,86.697025 41.8665113,89.3863754 40.7824514,90.0283842 C37.8506437,91.8487105 35.2891632,92.2655058 32.0944171,90.8553685 C29.2996125,89.5770562 27.4847694,88.8482651 24.6328302,88.4431809 C24.3627127,88.4068465 25.7731273,87.139945 25.8748327,87.0621713 C26.4814755,86.6606905 27.0973914,86.3156633 27.7614679,86.0472087" id="Fill-193"></path>
                    <path d="M15.6438676,75.7162115 C16.9989425,75.6528514 18.3704697,75.8852718 19.6947339,76.2561235 C20.1868085,76.3942545 20.6812763,76.5543063 21.1736501,76.7359786 C20.41415,75.327643 20.1051451,73.8403325 19.8125925,72.248523 C19.6648205,71.7485488 18.8999361,67.151189 18.9208754,67.1595854 C20.5472645,67.9643601 21.9555851,68.6850436 23.2840371,70.0753621 C24.1168249,70.9419839 24.6875717,71.9025949 25.1892186,72.9920281 C25.6017238,73.8859758 25.9681623,74.8640033 26.4060938,75.9201049 C26.7061248,76.6431906 27.0285907,77.3779874 27.488359,77.9842624 C27.9472298,78.5899368 28.5643423,79.0619844 29.2487598,79.1211405 C29.334312,79.1283473 29.428539,79.1337525 29.4880666,79.2091239 C29.5389193,79.2733849 29.5499873,79.3733797 29.5478933,79.4661677 C29.5278514,81.1925049 27.4001146,83.0416585 26.2984058,83.2797843 C23.2968999,83.9956632 20.942719,83.5896782 18.4264077,81.3510552 C16.2343572,79.3511586 14.7802691,78.132603 12.338442,76.8726081 C12.1069127,76.7548965 13.6363824,76.0663435 13.7440705,76.0288079 C14.3710544,75.8609488 14.9944487,75.7468405 15.6438676,75.7162115" id="Fill-194"></path>
                    <path d="M7.13680904,62.5069847 C8.34171891,62.8937515 9.50235702,63.554378 10.5950918,64.3222062 C11.001016,64.6080773 11.4048463,64.9140674 11.802993,65.2386753 C11.4305718,63.7177329 11.4742453,62.2670572 11.5538148,60.7226926 C11.5301832,60.2242199 11.8296159,55.7721979 11.8466665,55.7826893 C13.1078135,57.0622213 14.2047362,58.18919 15.0931627,59.8921049 C15.6513459,60.9545125 15.9573595,62.012716 16.1736331,63.1619058 C16.3519167,64.1051003 16.4703735,65.1077511 16.634897,66.2004874 C16.7476703,66.9490973 16.8771951,67.7142229 17.1571841,68.4066796 C17.4359766,69.0985357 17.884976,69.7195246 18.4832431,69.9909821 C18.5580265,70.0252145 18.6414847,70.0600476 18.6782781,70.1465296 C18.709388,70.2203996 18.698021,70.3134879 18.6758851,70.3960662 C18.2807297,71.9347254 15.9794954,72.9130532 14.9477839,72.7770242 C12.1203737,72.4635269 10.1203669,71.3524732 8.3782132,68.5192864 C6.872375,66.0038009 5.85292792,64.4231018 3.98783034,62.4751545 C3.81044415,62.2916805 5.29833435,62.1667621 5.40153542,62.1682635 C5.98723887,62.2211136 6.55918219,62.321709 7.13680904,62.5069847" id="Fill-195"></path>
                    <path d="M2.66625839,47.5221741 C3.60194808,48.289702 4.44520551,49.2953557 5.21457696,50.3748794 C5.50024948,50.7760599 5.7805376,51.1952574 6.05334738,51.6291689 C6.06591099,50.0983171 6.4254695,48.7677553 6.83827377,47.3573178 C6.92621903,46.8903749 8.18736601,42.8272217 8.20262182,42.8374122 C8.97917247,44.4709805 9.668077,45.9003361 10.0638307,47.786725 C10.3142054,48.9644419 10.3518963,50.0484699 10.2929669,51.1829457 C10.2454047,52.1144291 10.1344262,53.0780429 10.0446861,54.1377479 C9.98336374,54.8638365 9.93340844,55.6091433 10.0312251,56.336433 C10.1287426,57.0634224 10.3907836,57.7799019 10.8604233,58.2264253 C10.9190534,58.2822783 10.9848628,58.3417347 10.9992212,58.432721 C11.0111866,58.5104947 10.9809741,58.5915716 10.9438815,58.6597362 C10.2678397,59.9320428 8.0312183,60.0641681 7.15715012,59.5996276 C4.74762951,58.3783694 3.24867138,56.7024801 2.3755006,53.5089516 C1.63993124,50.684473 1.1275155,48.8737558 0.00636301648,46.4291375 C-0.101025922,46.1982185 1.18524827,46.5840845 1.27259526,46.6204189 C1.75599505,46.8675533 2.21755809,47.1549258 2.66625839,47.5221741" id="Fill-196"></path>
                    <path d="M2.65997659,31.8551165 C3.20769009,32.909116 3.62647703,34.1589012 3.9812494,35.4501257 C4.11226989,35.9299808 4.23641031,36.4245498 4.35277325,36.9299291 C4.74822778,35.4795537 5.38687787,34.3321655 6.09373041,33.1211171 C6.2818854,32.7100272 8.40274215,29.2186162 8.41859623,29.2273082 C8.59089714,31.0776792 8.77635993,32.6953133 8.6252975,34.6396572 C8.53436091,35.854309 8.30073762,36.9011018 7.97707513,37.959005 C7.71264109,38.8277288 7.38957688,39.7021581 7.06441873,40.6714773 C6.84216251,41.3357073 6.62558983,42.0203565 6.53943938,42.7374366 C6.45298978,43.4533155 6.51072256,44.2142371 6.80836042,44.7916847 C6.84575211,44.8640533 6.88822907,44.9421273 6.8795542,45.0319125 C6.87207586,45.1090857 6.8278041,45.1745478 6.78113927,45.2255962 C5.91664336,46.1838049 3.98334334,45.5478017 3.35396638,44.8172089 C1.60463348,42.8557488 0.752701181,40.7783787 0.844236042,37.4587306 C0.963291188,34.5318549 1.0302971,32.6280495 0.818809692,29.9026649 C0.798169478,29.64442 1.72309036,30.4515855 1.78381447,30.5161467 C2.10388735,30.9176274 2.39703821,31.3503378 2.65997659,31.8551165" id="Fill-197"></path>
                    <path d="M7.54392978,16.5877379 C7.58521021,17.8107978 7.47482993,19.1846006 7.32257096,20.5740182 C7.26513733,21.090508 7.20052448,21.6184086 7.12903157,22.1535161 C7.90618049,20.861691 8.78742788,19.9413182 9.74974045,18.9732001 C10.026439,18.6359803 12.9055992,15.8391279 12.9244446,15.8448334 C12.3737398,17.7597493 11.9594399,19.4407435 11.2086147,21.321427 C10.743462,22.4973422 10.2340376,23.4528483 9.65611166,24.3840314 C9.18258327,25.1488567 8.66597966,25.8962655 8.1239497,26.7316577 C7.75302412,27.3040005 7.3826968,27.8964623 7.11108356,28.562494 C6.83887204,29.2276247 6.6734512,29.9831412 6.75631119,30.6422663 C6.76678086,30.7248446 6.77994274,30.8146297 6.74853372,30.8984092 C6.7216117,30.9701773 6.66836593,31.0182228 6.61631669,31.0515544 C5.65609805,31.678549 4.26243492,30.4065427 3.96569446,29.4891728 C3.11854829,27.001914 3.05931985,24.7092398 4.21098396,21.4970936 C5.26812186,18.674717 5.98783714,16.8195577 6.85203392,14.053935 C6.93339824,13.7914861 7.33752764,14.8917295 7.36175746,14.9758092 C7.45777932,15.4775851 7.52388783,16.0018823 7.54392978,16.5877379" id="Fill-198"></path>
                    <path d="M17.7455798,2.79325609 C17.1622694,4.0430413 16.4168286,5.40303103 15.6663026,6.76332104 C15.387211,7.26870031 15.1009402,7.78308812 14.8107807,8.30198021 C15.9675301,7.23416756 17.0554787,6.56543338 18.2349622,5.86276701 C18.5891363,5.61082809 22.1263904,3.57159421 22.1509193,3.57339592 C20.7581536,5.38441337 19.6477699,6.99273861 18.2436371,8.69295098 C17.3710646,9.75655964 16.5825486,10.5754362 15.7599314,11.3420632 C15.0859835,11.972361 14.3928911,12.5669248 13.6525357,13.2374607 C13.1452052,13.6968964 12.6342851,14.1746495 12.1742177,14.7554002 C11.7144495,15.3355504 11.307927,16.0373159 11.1338313,16.722866 C11.1119946,16.8084472 11.0895595,16.9027366 11.0354164,16.9760061 C10.9890507,17.0387656 10.9304205,17.0693947 10.8786704,17.0853097 C9.91456303,17.3958042 9.29745055,15.6739713 9.41949703,14.6653148 C9.71563923,11.9120037 10.5944935,9.6133238 12.9020096,6.74350225 C14.9812868,4.23222071 16.4255035,2.57164593 18.5314036,0.0315370538 C18.7306265,-0.210492471 18.4557228,1.01707167 18.4320912,1.1092591 C18.2436371,1.64466684 18.0246714,2.19418797 17.7455798,2.79325609" id="Fill-199"></path>
                    <path d="M74.9366208,92.3877217 C73.6407743,91.3106002 72.1669434,90.5118427 70.6572165,89.8869501 C70.096042,89.6551303 69.5196117,89.4431292 68.9315151,89.2539498 C70.4729502,88.430569 71.6003845,87.1963986 72.7562365,85.8529245 C73.1860914,85.4667583 76.3945977,81.5495434 76.3581034,81.5474415 C74.361387,81.100918 72.6201307,80.7405763 70.5704678,81.1027197 C69.287484,81.3246302 68.1983388,81.8405194 67.0927413,82.5380809 C66.1842728,83.1098231 65.2671294,83.8019795 64.2249481,84.5202607 C63.5109164,85.0121271 62.7633817,85.5003902 61.9482428,85.7580345 C61.1345996,86.0159791 60.2345068,86.023186 59.5082106,85.5670534 C59.4175731,85.5099993 59.3188591,85.4442369 59.2138632,85.4745657 C59.1244223,85.5003902 59.0532285,85.5916767 58.9999827,85.6862664 C57.9895096,87.4285187 59.0487415,90.874887 60.0263099,91.9327902 C62.6440274,94.8872921 65.2656337,96.2211571 69.0430919,95.8734273 C72.356295,95.522995 74.4595028,95.407085 77.5540392,95.998646 C77.8459936,96.056601 76.7170636,94.2353739 76.6318105,94.1179625 C76.1074295,93.4834608 75.5573229,92.9042115 74.9366208,92.3877217" id="Fill-200"></path>
                    <path d="M90.2370019,86.0472087 C88.8520136,85.4880785 87.3772853,85.2277316 85.9145223,85.1295385 C85.3698002,85.0938046 84.8175997,85.0796912 84.2618096,85.0886998 C85.4110806,83.9085806 86.1089591,82.4867322 86.8149143,80.9546793 C87.0960998,80.4901388 89.0314937,76.0513293 89.0045717,76.0558301 C87.1319958,76.2795457 85.5094955,76.5008556 83.7936656,77.4458518 C82.7191779,78.0329085 81.8875867,78.8157509 81.0894985,79.7586451 C80.4334986,80.5321786 79.8011303,81.4111122 79.0706462,82.3464992 C78.5701958,82.9873069 78.0422252,83.6329192 77.4038742,84.0959583 C76.7670189,84.5589974 75.9991431,84.8268514 75.2722486,84.6412754 C75.181312,84.6181535 75.0817006,84.5896265 74.999738,84.6463803 C74.9291425,84.6950264 74.8905542,84.794721 74.8672218,84.8923135 C74.4194189,86.697025 76.1331549,89.3863754 77.2172149,90.0283842 C80.1490226,91.8487105 82.7105031,92.2655058 85.9055483,90.8553685 C88.6994555,89.5770562 90.5151961,88.8482651 93.3659386,88.4431809 C93.6381502,88.4068465 92.2262399,87.139945 92.1245345,87.0621713 C91.5172934,86.6606905 90.9010783,86.3156633 90.2370019,86.0472087" id="Fill-201"></path>
                    <path d="M102.354901,75.7162115 C100.999826,75.6528514 99.6297948,75.8852718 98.3046333,76.2561235 C97.8140543,76.3942545 97.3174926,76.5543063 96.8269136,76.7359786 C97.5867128,75.327643 97.8948203,73.8403325 98.1879712,72.248523 C98.3345466,71.7485488 99.1003285,67.151189 99.0793891,67.1595854 C97.4521027,67.9643601 96.0431838,68.6850436 94.7150309,70.0753621 C93.8834397,70.9419839 93.3120946,71.9025949 92.8095503,72.9920281 C92.396746,73.8859758 92.0318031,74.8640033 91.5950681,75.9201049 C91.2929433,76.6431906 90.9728704,77.3779874 90.5122047,77.9842624 C90.0515391,78.5899368 89.435324,79.0619844 88.7503082,79.1211405 C88.6665508,79.1283473 88.5708281,79.1337525 88.5110014,79.2091239 C88.4601487,79.2733849 88.4481834,79.3733797 88.4511747,79.4661677 C88.472114,81.1925049 90.5989535,83.0416585 91.6997649,83.2797843 C94.7030655,83.9956632 97.0572464,83.5896782 99.5729594,81.3510552 C101.765608,79.3511586 103.219397,78.132603 105.660327,76.8726081 C105.893651,76.7548965 104.362087,76.0663435 104.254399,76.0288079 C103.62921,75.8609488 103.004021,75.7468405 102.354901,75.7162115" id="Fill-202"></path>
                    <path d="M110.862259,62.5069847 C109.656751,62.8937515 108.499104,63.554378 107.404275,64.3222062 C106.997454,64.6080773 106.593623,64.9140674 106.195776,65.2386753 C106.569693,63.7177329 106.524823,62.2670572 106.447048,60.7226926 C106.470979,60.2242199 106.168854,55.7721979 106.153897,55.7826893 C104.891554,57.0622213 103.793734,58.18919 102.905307,59.8921049 C102.348919,60.9545125 102.043802,62.012716 101.825435,63.1619058 C101.648946,64.1051003 101.529293,65.1077511 101.364769,66.2004874 C101.251099,66.9490973 101.122471,67.7142229 100.841286,68.4066796 C100.563091,69.0985357 100.114391,69.7195246 99.5161241,69.9909821 C99.4413407,70.0252145 99.3575833,70.0600476 99.3216873,70.1465296 C99.2887826,70.2203996 99.3007479,70.3134879 99.3246786,70.3960662 C99.7195349,71.9347254 102.019872,72.9130532 103.051882,72.7770242 C105.878694,72.4635269 107.879898,71.3524732 109.620855,68.5192864 C111.128488,66.0038009 112.145542,64.4231018 114.012135,62.4751545 C114.188624,62.2916805 112.70193,62.1667621 112.597233,62.1682635 C112.013923,62.2211136 111.439587,62.321709 110.862259,62.5069847" id="Fill-203"></path>
                    <path d="M115.334305,47.5221741 C114.398017,48.289702 113.554461,49.2953557 112.785688,50.3748794 C112.498519,50.7760599 112.220325,51.1952574 111.945122,51.6291689 C111.933157,50.0983171 111.574197,48.7677553 111.161393,47.3573178 C111.074644,46.8903749 109.8123,42.8272217 109.797344,42.8374122 C109.019596,44.4709805 108.331589,45.9003361 107.936733,47.786725 C107.685461,48.9644419 107.646574,50.0484699 107.7064,51.1829457 C107.754262,52.1144291 107.864941,53.0780429 107.954681,54.1377479 C108.017499,54.8638365 108.06536,55.6091433 107.969638,56.336433 C107.870924,57.0634224 107.607686,57.7799019 107.138046,58.2264253 C107.081211,58.2822783 107.015402,58.3417347 107.000445,58.432721 C106.98848,58.5104947 107.018393,58.5915716 107.054289,58.6597362 C107.733322,59.9320428 109.96785,60.0641681 110.84132,59.5996276 C113.252336,58.3783694 114.750995,56.7024801 115.624465,53.5089516 C116.360333,50.684473 116.871852,48.8737558 117.993602,46.4291375 C118.10129,46.1982185 116.815016,46.5840845 116.728268,46.6204189 C116.243671,46.8675533 115.783006,47.1549258 115.334305,47.5221741" id="Fill-204"></path>
                    <path d="M115.340288,31.8551165 C114.792874,32.909116 114.374087,34.1589012 114.018118,35.4501257 C113.886499,35.9299808 113.763854,36.4245498 113.647192,36.9299291 C113.252336,35.4795537 112.61219,34.3321655 111.906235,33.1211171 C111.717781,32.7100272 109.596924,29.2186162 109.581967,29.2273082 C109.40847,31.0776792 109.223007,32.6953133 109.375565,34.6396572 C109.465305,35.854309 109.69863,36.9011018 110.021694,37.959005 C110.287923,38.8277288 110.610987,39.7021581 110.934051,40.6714773 C111.158401,41.3357073 111.373777,42.0203565 111.460526,42.7374366 C111.547275,43.4533155 111.490439,44.2142371 111.191306,44.7916847 C111.15541,44.8640533 111.11054,44.9421273 111.119514,45.0319125 C111.128488,45.1090857 111.170367,45.1745478 111.218228,45.2255962 C112.082724,46.1838049 114.015126,45.5478017 114.646298,44.8172089 C116.396229,42.8557488 117.245769,40.7783787 117.156029,37.4587306 C117.036375,34.5318549 116.970566,32.6280495 117.179959,29.9026649 C117.200899,29.64442 116.276576,30.4515855 116.216749,30.5161467 C115.896676,30.9176274 115.603525,31.3503378 115.340288,31.8551165" id="Fill-205"></path>
                    <path d="M110.455437,16.5877379 C110.413559,17.8107978 110.524238,19.1846006 110.676796,20.5740182 C110.733632,21.090508 110.799441,21.6184086 110.871233,22.1535161 C110.093486,20.861691 109.211042,19.9413182 108.250823,18.9732001 C107.972629,18.6359803 105.094964,15.8391279 105.074025,15.8448334 C105.624431,17.7597493 106.040226,19.4407435 106.791052,21.321427 C107.254709,22.4973422 107.766227,23.4528483 108.343555,24.3840314 C108.816186,25.1488567 109.333687,25.8962655 109.875118,26.7316577 C110.246044,27.3040005 110.616969,27.8964623 110.889181,28.562494 C111.161393,29.2276247 111.325916,29.9831412 111.242159,30.6422663 C111.233185,30.7248446 111.218228,30.8146297 111.251133,30.8984092 C111.278055,30.9701773 111.331899,31.0182228 111.382751,31.0515544 C112.34297,31.678549 113.736932,30.4065427 114.033074,29.4891728 C114.882614,27.001914 114.939449,24.7092398 113.787785,21.4970936 C112.731844,18.674717 112.010932,16.8195577 111.146436,14.053935 C111.06567,13.7914861 110.66184,14.8917295 110.637909,14.9758092 C110.542186,15.4775851 110.476377,16.0018823 110.455437,16.5877379" id="Fill-206"></path>
                    <path d="M100.254984,2.79325609 C100.838294,4.0430413 101.583137,5.40303103 102.333962,6.76332104 C102.612156,7.26870031 102.899324,7.78308812 103.189484,8.30198021 C102.031837,7.23416756 100.942991,6.56543338 99.7644049,5.86276701 C99.4114273,5.61082809 95.8726776,3.57159421 95.848747,3.57339592 C97.2427092,5.38441337 98.3524946,6.99273861 99.7554309,8.69295098 C100.628901,9.75655964 101.418613,10.5754362 102.241231,11.3420632 C102.914281,11.972361 103.608271,12.5669248 104.347131,13.2374607 C104.855658,13.6968964 105.364185,14.1746495 105.82485,14.7554002 C106.285516,15.3355504 106.692338,16.0373159 106.865835,16.722866 C106.886774,16.8084472 106.910705,16.9027366 106.964549,16.9760061 C107.01241,17.0387656 107.069246,17.0693947 107.120098,17.0853097 C108.0863,17.3958042 108.702515,15.6739713 108.57987,14.6653148 C108.283728,11.9120037 107.404275,9.6133238 105.097956,6.74350225 C103.018978,4.23222071 101.574163,2.57164593 99.4682627,0.0315370538 C99.2678432,-0.210492471 99.5430461,1.01707167 99.5669768,1.1092591 C99.7554309,1.64466684 99.9737984,2.19418797 100.254984,2.79325609" id="Fill-207"></path>
                </g>
                <polygon id="Shape" fill-rule="nonzero" points="64.5 57.3690526 79.023 66 75.18075 49.7223158 88 38.7755789 71.10115 37.3467368 64.5 22 57.89885 37.3467368 41 38.7755789 53.81925 49.7223158 49.977 66"></polygon>
            </g>
        </g>
    </g>
</svg>