<?xml version="1.0" encoding="UTF-8"?>
<svg width="120px" height="120px" viewBox="0 0 120 120" version="1.1" xmlns="http://www.w3.org/2000/svg" xmlns:xlink="http://www.w3.org/1999/xlink">
    <title>Group 62</title>
    <defs>
        <filter x="-41.9%" y="-41.9%" width="183.8%" height="183.8%" filterUnits="objectBoundingBox" id="filter-1">
            <feOffset dx="0" dy="2" in="SourceAlpha" result="shadowOffsetOuter1"></feOffset>
            <feGaussianBlur stdDeviation="7" in="shadowOffsetOuter1" result="shadowBlurOuter1"></feGaussianBlur>
            <feColorMatrix values="0 0 0 0 0   0 0 0 0 0   0 0 0 0 0  0 0 0 0.205803718 0" type="matrix" in="shadowBlurOuter1" result="shadowMatrixOuter1"></feColorMatrix>
            <feMerge>
                <feMergeNode in="shadowMatrixOuter1"></feMergeNode>
                <feMergeNode in="SourceGraphic"></feMergeNode>
            </feMerge>
        </filter>
    </defs>
    <g id="Page-3" stroke="none" stroke-width="1" fill="none" fill-rule="evenodd">
        <g id="Home-Copy" transform="translate(-1301.000000, -886.000000)">
            <g id="Group-62" filter="url(#filter-1)" transform="translate(1324.000000, 909.000000)">
                <g id="Group-60">
                    <circle id="Oval" fill="#25D366" cx="37" cy="37" r="37"></circle>
                    <g id="Digital_Glyph_Green" transform="translate(16.818182, 15.136364)" fill="#FFFFFF">
                        <path d="M34.4824281,5.8654232 C30.6885829,2.08493085 25.6427923,0.00191805827 20.2665805,0 C9.18844486,0 0.172493989,8.97173026 0.168639262,19.9996029 C0.166711898,23.5249604 1.09278484,26.9659611 2.85145527,29.9984559 L0,40.3636364 L10.6541605,37.5824268 C13.5894264,39.1763918 16.8947595,40.015497 20.2579472,40.0165012 L20.2665805,40.0165012 C31.3428101,40.0165012 40.3598216,31.0437667 40.3636351,20.0158941 C40.3655398,14.6712851 38.2772824,9.64688633 34.4824281,5.86638282 L34.4824281,5.8654232 Z M20.2665805,36.6387682 L20.2598532,36.6387682 C17.2628534,36.6378755 14.3228112,35.8360391 11.7575902,34.3217444 L11.1475611,33.9612193 L4.82502393,35.6116455 L6.51238079,29.4766932 L6.11534839,28.8475875 C4.4434082,26.200724 3.55973613,23.1413376 3.56166147,20.0006072 C3.56552159,10.835124 11.0588956,3.37769956 20.2734199,3.37769956 C24.735059,3.37961879 28.9289527,5.11067489 32.0829222,8.25341384 C35.2370038,11.3952043 36.9725279,15.5727653 36.9706234,20.0139971 C36.9666976,29.18044 29.4734132,36.6378755 20.2665805,36.6378755 L20.2665805,36.6387682 Z M29.4290133,24.1886569 C28.9269345,23.938376 26.4581377,22.7299306 25.9974317,22.5631138 C25.5368377,22.3961855 25.2024923,22.3128329 24.8680348,22.8133948 C24.5336893,23.3140683 23.5710167,24.4399421 23.278044,24.772683 C22.9850712,25.1064282 22.6920985,25.147714 22.1900198,24.8973214 C21.6880531,24.6470404 20.070032,24.119587 18.151414,22.4172747 C16.6587444,21.0918902 15.6506626,19.4558583 15.357802,18.9551848 C15.0648293,18.4546229 15.3269687,18.1841453 15.5774475,17.9357613 C15.8029232,17.7113676 16.0795262,17.3517352 16.3310141,17.0601684 C16.5826141,16.7686017 16.6654717,16.5596065 16.8330929,16.226754 C17.0008262,15.8930089 16.9169595,15.6015537 16.7917201,15.3511612 C16.6663686,15.1008802 15.6623232,12.6409184 15.243102,11.6406872 C14.8354293,10.6663322 14.4211415,10.7986809 14.1137051,10.7823786 C13.8207324,10.7679844 13.486387,10.7651167 13.1510325,10.7651167 C12.815678,10.7651167 12.2721144,10.8897885 11.8115204,11.3904063 C11.3509265,11.8909682 10.0538075,13.1003062 10.0538075,15.5592637 C10.0538075,18.0182212 11.8530053,20.395723 12.1044932,20.7294682 C12.355981,21.0632134 15.6458414,26.1105648 20.6828865,28.2760587 C21.8807895,28.7910148 22.816441,29.0988727 23.5459015,29.3290687 C24.7486257,29.7097904 25.843265,29.6561189 26.7086165,29.5275751 C27.6733073,29.3837444 29.6796041,28.3182371 30.0978162,27.1510775 C30.5160283,25.983918 30.5160283,24.9826825 30.3907889,24.77458 C30.2655496,24.5664774 29.930195,24.4408348 29.4281163,24.1905538 L29.4290133,24.1886569 Z" id="Shape"></path>
                    </g>
                </g>
            </g>
        </g>
    </g>
</svg>