<?xml version="1.0" encoding="UTF-8"?>
<svg width="28px" height="20px" viewBox="0 0 28 20" version="1.1" xmlns="http://www.w3.org/2000/svg" xmlns:xlink="http://www.w3.org/1999/xlink">
    <title>youtube</title>
    <g id="youtube" stroke="none" stroke-width="1" fill="none" fill-rule="evenodd">
        <g id="iconfinder_BW_Youtube_2_glyph_svg_5305165" fill="#000000">
            <path d="M27.4150876,3.12300962 C27.0930515,1.8936133 26.1444337,0.925634296 24.9396274,0.597025372 C22.7558517,0 14,0 14,0 C14,0 5.2441483,0 3.0603726,0.597025372 C1.85590926,0.925634296 0.906948544,1.8936133 0.584912362,3.12300962 C0,5.3511811 0,10.000175 0,10.000175 C0,10.000175 0,14.6489939 0.584912362,16.8769904 C0.906948544,18.1063867 1.85590926,19.0747157 3.0603726,19.4031496 C5.2441483,20 14,20 14,20 C14,20 22.7558517,20 24.9396274,19.4031496 C26.1444337,19.0747157 27.0930515,18.1063867 27.4150876,16.8769904 C28,14.6489939 28,10.000175 28,10.000175 C28,10.000175 28,5.3511811 27.4150876,3.12300962 L27.4150876,3.12300962 Z M11.1999314,14.2859143 L11.1999314,5.71426072 L18.4743824,10.000175 L11.1999314,14.2859143 Z" id="Shape"></path>
        </g>
    </g>
</svg>